<svg width="256" height="243" viewBox="0 0 256 243" fill="none" xmlns="http://www.w3.org/2000/svg">
<path d="M230.053 7.17773H25.0527C11.5218 7.17773 0.552734 18.1468 0.552734 31.6777V217.678C0.552734 231.209 11.5218 242.178 25.0527 242.178H230.053C243.584 242.178 254.553 231.209 254.553 217.678V31.6777C254.553 18.1468 243.584 7.17773 230.053 7.17773Z" fill="#161A2C" stroke="#3E4879"/>
<path d="M44.4817 214.851C44.071 214.69 43.7557 214.455 43.5357 214.147C43.3157 213.839 43.2057 213.465 43.2057 213.025C43.2057 212.629 43.3047 212.274 43.5027 211.958C43.7007 211.636 43.994 211.383 44.3827 211.199C44.7787 211.009 45.2553 210.913 45.8127 210.913C46.37 210.913 46.843 211.009 47.2317 211.199C47.6277 211.383 47.9247 211.636 48.1227 211.958C48.328 212.274 48.4307 212.629 48.4307 213.025C48.4307 213.451 48.317 213.825 48.0897 214.147C47.8623 214.463 47.5507 214.697 47.1547 214.851C47.6093 214.991 47.9687 215.236 48.2327 215.588C48.504 215.933 48.6397 216.351 48.6397 216.842C48.6397 217.319 48.5223 217.737 48.2877 218.096C48.053 218.448 47.7193 218.723 47.2867 218.921C46.8613 219.112 46.37 219.207 45.8127 219.207C45.2553 219.207 44.764 219.112 44.3387 218.921C43.9207 218.723 43.5943 218.448 43.3597 218.096C43.125 217.737 43.0077 217.319 43.0077 216.842C43.0077 216.351 43.1397 215.929 43.4037 215.577C43.6677 215.225 44.027 214.983 44.4817 214.851ZM47.4627 213.146C47.4627 212.699 47.316 212.354 47.0227 212.112C46.7293 211.87 46.326 211.749 45.8127 211.749C45.3067 211.749 44.907 211.87 44.6137 212.112C44.3203 212.354 44.1737 212.703 44.1737 213.157C44.1737 213.568 44.324 213.898 44.6247 214.147C44.9327 214.397 45.3287 214.521 45.8127 214.521C46.304 214.521 46.7 214.397 47.0007 214.147C47.3087 213.891 47.4627 213.557 47.4627 213.146ZM45.8127 215.291C45.27 215.291 44.8263 215.42 44.4817 215.676C44.137 215.926 43.9647 216.303 43.9647 216.809C43.9647 217.279 44.1297 217.656 44.4597 217.942C44.797 218.228 45.248 218.371 45.8127 218.371C46.3773 218.371 46.8247 218.228 47.1547 217.942C47.4847 217.656 47.6497 217.279 47.6497 216.809C47.6497 216.318 47.481 215.944 47.1437 215.687C46.8063 215.423 46.3627 215.291 45.8127 215.291ZM50.4691 214.928C50.4691 213.667 50.6744 212.684 51.0851 211.98C51.4958 211.269 52.2144 210.913 53.2411 210.913C54.2604 210.913 54.9754 211.269 55.3861 211.98C55.7968 212.684 56.0021 213.667 56.0021 214.928C56.0021 216.212 55.7968 217.209 55.3861 217.92C54.9754 218.632 54.2604 218.987 53.2411 218.987C52.2144 218.987 51.4958 218.632 51.0851 217.92C50.6744 217.209 50.4691 216.212 50.4691 214.928ZM55.0121 214.928C55.0121 214.29 54.9681 213.751 54.8801 213.311C54.7994 212.864 54.6271 212.505 54.3631 212.233C54.1064 211.962 53.7324 211.826 53.2411 211.826C52.7424 211.826 52.3611 211.962 52.0971 212.233C51.8404 212.505 51.6681 212.864 51.5801 213.311C51.4994 213.751 51.4591 214.29 51.4591 214.928C51.4591 215.588 51.4994 216.142 51.5801 216.589C51.6681 217.037 51.8404 217.396 52.0971 217.667C52.3611 217.939 52.7424 218.074 53.2411 218.074C53.7324 218.074 54.1064 217.939 54.3631 217.667C54.6271 217.396 54.7994 217.037 54.8801 216.589C54.9681 216.142 55.0121 215.588 55.0121 214.928ZM60.1753 219.086C59.7133 219.086 59.299 219.009 58.9323 218.855C58.5657 218.694 58.276 218.474 58.0633 218.195C57.8507 217.909 57.7333 217.583 57.7113 217.216H58.7453C58.7747 217.517 58.914 217.763 59.1633 217.953C59.42 218.144 59.7537 218.239 60.1643 218.239C60.5457 218.239 60.8463 218.155 61.0663 217.986C61.2863 217.818 61.3963 217.605 61.3963 217.348C61.3963 217.084 61.279 216.89 61.0443 216.765C60.8097 216.633 60.4467 216.505 59.9553 216.38C59.508 216.263 59.1413 216.146 58.8553 216.028C58.5767 215.904 58.3347 215.724 58.1293 215.489C57.9313 215.247 57.8323 214.932 57.8323 214.543C57.8323 214.235 57.924 213.953 58.1073 213.696C58.2907 213.44 58.551 213.238 58.8883 213.091C59.2257 212.937 59.6107 212.86 60.0433 212.86C60.7107 212.86 61.2497 213.029 61.6603 213.366C62.071 213.704 62.291 214.166 62.3203 214.752H61.3193C61.2973 214.437 61.169 214.184 60.9343 213.993C60.707 213.803 60.399 213.707 60.0103 213.707C59.651 213.707 59.365 213.784 59.1523 213.938C58.9397 214.092 58.8333 214.294 58.8333 214.543C58.8333 214.741 58.8957 214.906 59.0203 215.038C59.1523 215.163 59.3137 215.266 59.5043 215.346C59.7023 215.42 59.9737 215.504 60.3183 215.599C60.751 215.717 61.103 215.834 61.3743 215.951C61.6457 216.061 61.8767 216.23 62.0673 216.457C62.2653 216.685 62.368 216.982 62.3753 217.348C62.3753 217.678 62.2837 217.975 62.1003 218.239C61.917 218.503 61.6567 218.712 61.3193 218.866C60.9893 219.013 60.608 219.086 60.1753 219.086Z" fill="white"/>
<path d="M73.3602 211.815L70.3022 218.987H69.2902L72.3922 211.914H68.1462V211.056H73.3602V211.815ZM74.9701 214.928C74.9701 213.667 75.1754 212.684 75.5861 211.98C75.9968 211.269 76.7154 210.913 77.7421 210.913C78.7614 210.913 79.4764 211.269 79.8871 211.98C80.2978 212.684 80.5031 213.667 80.5031 214.928C80.5031 216.212 80.2978 217.209 79.8871 217.92C79.4764 218.632 78.7614 218.987 77.7421 218.987C76.7154 218.987 75.9968 218.632 75.5861 217.92C75.1754 217.209 74.9701 216.212 74.9701 214.928ZM79.5131 214.928C79.5131 214.29 79.4691 213.751 79.3811 213.311C79.3004 212.864 79.1281 212.505 78.8641 212.233C78.6074 211.962 78.2334 211.826 77.7421 211.826C77.2434 211.826 76.8621 211.962 76.5981 212.233C76.3414 212.505 76.1691 212.864 76.0811 213.311C76.0004 213.751 75.9601 214.29 75.9601 214.928C75.9601 215.588 76.0004 216.142 76.0811 216.589C76.1691 217.037 76.3414 217.396 76.5981 217.667C76.8621 217.939 77.2434 218.074 77.7421 218.074C78.2334 218.074 78.6074 217.939 78.8641 217.667C79.1281 217.396 79.3004 217.037 79.3811 216.589C79.4691 216.142 79.5131 215.588 79.5131 214.928ZM84.6763 219.086C84.2143 219.086 83.8 219.009 83.4333 218.855C83.0666 218.694 82.777 218.474 82.5643 218.195C82.3516 217.909 82.2343 217.583 82.2123 217.216H83.2463C83.2756 217.517 83.415 217.763 83.6643 217.953C83.921 218.144 84.2546 218.239 84.6653 218.239C85.0466 218.239 85.3473 218.155 85.5673 217.986C85.7873 217.818 85.8973 217.605 85.8973 217.348C85.8973 217.084 85.78 216.89 85.5453 216.765C85.3106 216.633 84.9476 216.505 84.4563 216.38C84.009 216.263 83.6423 216.146 83.3563 216.028C83.0776 215.904 82.8356 215.724 82.6303 215.489C82.4323 215.247 82.3333 214.932 82.3333 214.543C82.3333 214.235 82.425 213.953 82.6083 213.696C82.7916 213.44 83.052 213.238 83.3893 213.091C83.7266 212.937 84.1116 212.86 84.5443 212.86C85.2116 212.86 85.7506 213.029 86.1613 213.366C86.572 213.704 86.792 214.166 86.8213 214.752H85.8203C85.7983 214.437 85.67 214.184 85.4353 213.993C85.208 213.803 84.9 213.707 84.5113 213.707C84.152 213.707 83.866 213.784 83.6533 213.938C83.4406 214.092 83.3343 214.294 83.3343 214.543C83.3343 214.741 83.3966 214.906 83.5213 215.038C83.6533 215.163 83.8146 215.266 84.0053 215.346C84.2033 215.42 84.4746 215.504 84.8193 215.599C85.252 215.717 85.604 215.834 85.8753 215.951C86.1466 216.061 86.3776 216.23 86.5683 216.457C86.7663 216.685 86.869 216.982 86.8763 217.348C86.8763 217.678 86.7846 217.975 86.6013 218.239C86.418 218.503 86.1576 218.712 85.8203 218.866C85.4903 219.013 85.109 219.086 84.6763 219.086Z" fill="white"/>
<path d="M97.3357 212.926C97.1744 212.112 96.672 211.705 95.8287 211.705C95.176 211.705 94.6884 211.958 94.3657 212.464C94.043 212.963 93.8854 213.788 93.8927 214.939C94.0614 214.558 94.34 214.261 94.7287 214.048C95.1247 213.828 95.5647 213.718 96.0487 213.718C96.804 213.718 97.4054 213.953 97.8527 214.422C98.3074 214.892 98.5347 215.541 98.5347 216.369C98.5347 216.868 98.4357 217.315 98.2377 217.711C98.047 218.107 97.7537 218.423 97.3577 218.657C96.969 218.892 96.496 219.009 95.9387 219.009C95.1834 219.009 94.593 218.841 94.1677 218.503C93.7424 218.166 93.4454 217.7 93.2767 217.106C93.108 216.512 93.0237 215.779 93.0237 214.906C93.0237 212.215 93.9624 210.869 95.8397 210.869C96.5584 210.869 97.123 211.064 97.5337 211.452C97.9444 211.841 98.1864 212.332 98.2597 212.926H97.3357ZM95.8397 214.565C95.5244 214.565 95.2274 214.631 94.9487 214.763C94.67 214.888 94.4427 215.082 94.2667 215.346C94.098 215.603 94.0137 215.918 94.0137 216.292C94.0137 216.85 94.175 217.304 94.4977 217.656C94.8204 218.001 95.2824 218.173 95.8837 218.173C96.397 218.173 96.804 218.016 97.1047 217.7C97.4127 217.378 97.5667 216.945 97.5667 216.402C97.5667 215.83 97.42 215.383 97.1267 215.06C96.8334 214.73 96.4044 214.565 95.8397 214.565ZM100.385 214.928C100.385 213.667 100.59 212.684 101.001 211.98C101.412 211.269 102.13 210.913 103.157 210.913C104.176 210.913 104.891 211.269 105.302 211.98C105.713 212.684 105.918 213.667 105.918 214.928C105.918 216.212 105.713 217.209 105.302 217.92C104.891 218.632 104.176 218.987 103.157 218.987C102.13 218.987 101.412 218.632 101.001 217.92C100.59 217.209 100.385 216.212 100.385 214.928ZM104.928 214.928C104.928 214.29 104.884 213.751 104.796 213.311C104.715 212.864 104.543 212.505 104.279 212.233C104.022 211.962 103.648 211.826 103.157 211.826C102.658 211.826 102.277 211.962 102.013 212.233C101.756 212.505 101.584 212.864 101.496 213.311C101.415 213.751 101.375 214.29 101.375 214.928C101.375 215.588 101.415 216.142 101.496 216.589C101.584 217.037 101.756 217.396 102.013 217.667C102.277 217.939 102.658 218.074 103.157 218.074C103.648 218.074 104.022 217.939 104.279 217.667C104.543 217.396 104.715 217.037 104.796 216.589C104.884 216.142 104.928 215.588 104.928 214.928ZM110.091 219.086C109.629 219.086 109.215 219.009 108.848 218.855C108.482 218.694 108.192 218.474 107.979 218.195C107.767 217.909 107.649 217.583 107.627 217.216H108.661C108.691 217.517 108.83 217.763 109.079 217.953C109.336 218.144 109.67 218.239 110.08 218.239C110.462 218.239 110.762 218.155 110.982 217.986C111.202 217.818 111.312 217.605 111.312 217.348C111.312 217.084 111.195 216.89 110.96 216.765C110.726 216.633 110.363 216.505 109.871 216.38C109.424 216.263 109.057 216.146 108.771 216.028C108.493 215.904 108.251 215.724 108.045 215.489C107.847 215.247 107.748 214.932 107.748 214.543C107.748 214.235 107.84 213.953 108.023 213.696C108.207 213.44 108.467 213.238 108.804 213.091C109.142 212.937 109.527 212.86 109.959 212.86C110.627 212.86 111.166 213.029 111.576 213.366C111.987 213.704 112.207 214.166 112.236 214.752H111.235C111.213 214.437 111.085 214.184 110.85 213.993C110.623 213.803 110.315 213.707 109.926 213.707C109.567 213.707 109.281 213.784 109.068 213.938C108.856 214.092 108.749 214.294 108.749 214.543C108.749 214.741 108.812 214.906 108.936 215.038C109.068 215.163 109.23 215.266 109.42 215.346C109.618 215.42 109.89 215.504 110.234 215.599C110.667 215.717 111.019 215.834 111.29 215.951C111.562 216.061 111.793 216.23 111.983 216.457C112.181 216.685 112.284 216.982 112.291 217.348C112.291 217.678 112.2 217.975 112.016 218.239C111.833 218.503 111.573 218.712 111.235 218.866C110.905 219.013 110.524 219.086 110.091 219.086Z" fill="white"/>
<path d="M123.409 211.903H119.548V214.411C119.717 214.177 119.966 213.986 120.296 213.839C120.626 213.685 120.982 213.608 121.363 213.608C121.972 213.608 122.467 213.737 122.848 213.993C123.23 214.243 123.501 214.569 123.662 214.972C123.831 215.368 123.915 215.79 123.915 216.237C123.915 216.765 123.816 217.238 123.618 217.656C123.42 218.074 123.116 218.404 122.705 218.646C122.302 218.888 121.8 219.009 121.198 219.009C120.428 219.009 119.805 218.811 119.328 218.415C118.852 218.019 118.562 217.491 118.459 216.831H119.438C119.534 217.249 119.735 217.576 120.043 217.81C120.351 218.045 120.74 218.162 121.209 218.162C121.789 218.162 122.225 217.99 122.518 217.645C122.812 217.293 122.958 216.831 122.958 216.259C122.958 215.687 122.812 215.247 122.518 214.939C122.225 214.624 121.792 214.466 121.22 214.466C120.832 214.466 120.491 214.562 120.197 214.752C119.911 214.936 119.702 215.189 119.57 215.511H118.624V211.023H123.409V211.903ZM125.745 214.928C125.745 213.667 125.951 212.684 126.361 211.98C126.772 211.269 127.491 210.913 128.517 210.913C129.537 210.913 130.252 211.269 130.662 211.98C131.073 212.684 131.278 213.667 131.278 214.928C131.278 216.212 131.073 217.209 130.662 217.92C130.252 218.632 129.537 218.987 128.517 218.987C127.491 218.987 126.772 218.632 126.361 217.92C125.951 217.209 125.745 216.212 125.745 214.928ZM130.288 214.928C130.288 214.29 130.244 213.751 130.156 213.311C130.076 212.864 129.903 212.505 129.639 212.233C129.383 211.962 129.009 211.826 128.517 211.826C128.019 211.826 127.637 211.962 127.373 212.233C127.117 212.505 126.944 212.864 126.856 213.311C126.776 213.751 126.735 214.29 126.735 214.928C126.735 215.588 126.776 216.142 126.856 216.589C126.944 217.037 127.117 217.396 127.373 217.667C127.637 217.939 128.019 218.074 128.517 218.074C129.009 218.074 129.383 217.939 129.639 217.667C129.903 217.396 130.076 217.037 130.156 216.589C130.244 216.142 130.288 215.588 130.288 214.928ZM135.452 219.086C134.99 219.086 134.575 219.009 134.209 218.855C133.842 218.694 133.552 218.474 133.34 218.195C133.127 217.909 133.01 217.583 132.988 217.216H134.022C134.051 217.517 134.19 217.763 134.44 217.953C134.696 218.144 135.03 218.239 135.441 218.239C135.822 218.239 136.123 218.155 136.343 217.986C136.563 217.818 136.673 217.605 136.673 217.348C136.673 217.084 136.555 216.89 136.321 216.765C136.086 216.633 135.723 216.505 135.232 216.38C134.784 216.263 134.418 216.146 134.132 216.028C133.853 215.904 133.611 215.724 133.406 215.489C133.208 215.247 133.109 214.932 133.109 214.543C133.109 214.235 133.2 213.953 133.384 213.696C133.567 213.44 133.827 213.238 134.165 213.091C134.502 212.937 134.887 212.86 135.32 212.86C135.987 212.86 136.526 213.029 136.937 213.366C137.347 213.704 137.567 214.166 137.597 214.752H136.596C136.574 214.437 136.445 214.184 136.211 213.993C135.983 213.803 135.675 213.707 135.287 213.707C134.927 213.707 134.641 213.784 134.429 213.938C134.216 214.092 134.11 214.294 134.11 214.543C134.11 214.741 134.172 214.906 134.297 215.038C134.429 215.163 134.59 215.266 134.781 215.346C134.979 215.42 135.25 215.504 135.595 215.599C136.027 215.717 136.379 215.834 136.651 215.951C136.922 216.061 137.153 216.23 137.344 216.457C137.542 216.685 137.644 216.982 137.652 217.348C137.652 217.678 137.56 217.975 137.377 218.239C137.193 218.503 136.933 218.712 136.596 218.866C136.266 219.013 135.884 219.086 135.452 219.086Z" fill="white"/>
<path d="M143.532 217.216V216.457L147.393 211.111H148.592V216.347H149.692V217.216H148.592V218.987H147.602V217.216H143.532ZM147.646 212.156L144.687 216.347H147.646V212.156ZM151.192 214.928C151.192 213.667 151.397 212.684 151.808 211.98C152.218 211.269 152.937 210.913 153.964 210.913C154.983 210.913 155.698 211.269 156.109 211.98C156.519 212.684 156.725 213.667 156.725 214.928C156.725 216.212 156.519 217.209 156.109 217.92C155.698 218.632 154.983 218.987 153.964 218.987C152.937 218.987 152.218 218.632 151.808 217.92C151.397 217.209 151.192 216.212 151.192 214.928ZM155.735 214.928C155.735 214.29 155.691 213.751 155.603 213.311C155.522 212.864 155.35 212.505 155.086 212.233C154.829 211.962 154.455 211.826 153.964 211.826C153.465 211.826 153.084 211.962 152.82 212.233C152.563 212.505 152.391 212.864 152.303 213.311C152.222 213.751 152.182 214.29 152.182 214.928C152.182 215.588 152.222 216.142 152.303 216.589C152.391 217.037 152.563 217.396 152.82 217.667C153.084 217.939 153.465 218.074 153.964 218.074C154.455 218.074 154.829 217.939 155.086 217.667C155.35 217.396 155.522 217.037 155.603 216.589C155.691 216.142 155.735 215.588 155.735 214.928ZM160.898 219.086C160.436 219.086 160.022 219.009 159.655 218.855C159.288 218.694 158.999 218.474 158.786 218.195C158.573 217.909 158.456 217.583 158.434 217.216H159.468C159.497 217.517 159.637 217.763 159.886 217.953C160.143 218.144 160.476 218.239 160.887 218.239C161.268 218.239 161.569 218.155 161.789 217.986C162.009 217.818 162.119 217.605 162.119 217.348C162.119 217.084 162.002 216.89 161.767 216.765C161.532 216.633 161.169 216.505 160.678 216.38C160.231 216.263 159.864 216.146 159.578 216.028C159.299 215.904 159.057 215.724 158.852 215.489C158.654 215.247 158.555 214.932 158.555 214.543C158.555 214.235 158.647 213.953 158.83 213.696C159.013 213.44 159.274 213.238 159.611 213.091C159.948 212.937 160.333 212.86 160.766 212.86C161.433 212.86 161.972 213.029 162.383 213.366C162.794 213.704 163.014 214.166 163.043 214.752H162.042C162.02 214.437 161.892 214.184 161.657 213.993C161.43 213.803 161.122 213.707 160.733 213.707C160.374 213.707 160.088 213.784 159.875 213.938C159.662 214.092 159.556 214.294 159.556 214.543C159.556 214.741 159.618 214.906 159.743 215.038C159.875 215.163 160.036 215.266 160.227 215.346C160.425 215.42 160.696 215.504 161.041 215.599C161.474 215.717 161.826 215.834 162.097 215.951C162.368 216.061 162.599 216.23 162.79 216.457C162.988 216.685 163.091 216.982 163.098 217.348C163.098 217.678 163.006 217.975 162.823 218.239C162.64 218.503 162.379 218.712 162.042 218.866C161.712 219.013 161.331 219.086 160.898 219.086Z" fill="white"/>
<path d="M169.189 213.036C169.241 212.362 169.501 211.834 169.97 211.452C170.44 211.071 171.048 210.88 171.796 210.88C172.295 210.88 172.724 210.972 173.083 211.155C173.45 211.331 173.725 211.573 173.908 211.881C174.099 212.189 174.194 212.538 174.194 212.926C174.194 213.381 174.062 213.773 173.798 214.103C173.542 214.433 173.204 214.646 172.786 214.741V214.796C173.263 214.914 173.641 215.145 173.919 215.489C174.198 215.834 174.337 216.285 174.337 216.842C174.337 217.26 174.242 217.638 174.051 217.975C173.861 218.305 173.575 218.566 173.193 218.756C172.812 218.947 172.354 219.042 171.818 219.042C171.041 219.042 170.403 218.841 169.904 218.437C169.406 218.027 169.127 217.447 169.068 216.699H170.036C170.088 217.139 170.267 217.499 170.575 217.777C170.883 218.056 171.294 218.195 171.807 218.195C172.321 218.195 172.709 218.063 172.973 217.799C173.245 217.528 173.38 217.18 173.38 216.754C173.38 216.204 173.197 215.808 172.83 215.566C172.464 215.324 171.91 215.203 171.169 215.203H170.916V214.367H171.18C171.855 214.36 172.365 214.25 172.709 214.037C173.054 213.817 173.226 213.48 173.226 213.025C173.226 212.637 173.098 212.325 172.841 212.09C172.592 211.856 172.233 211.738 171.763 211.738C171.309 211.738 170.942 211.856 170.663 212.09C170.385 212.325 170.22 212.64 170.168 213.036H169.189ZM176.189 214.928C176.189 213.667 176.394 212.684 176.805 211.98C177.216 211.269 177.934 210.913 178.961 210.913C179.98 210.913 180.695 211.269 181.106 211.98C181.517 212.684 181.722 213.667 181.722 214.928C181.722 216.212 181.517 217.209 181.106 217.92C180.695 218.632 179.98 218.987 178.961 218.987C177.934 218.987 177.216 218.632 176.805 217.92C176.394 217.209 176.189 216.212 176.189 214.928ZM180.732 214.928C180.732 214.29 180.688 213.751 180.6 213.311C180.519 212.864 180.347 212.505 180.083 212.233C179.826 211.962 179.452 211.826 178.961 211.826C178.462 211.826 178.081 211.962 177.817 212.233C177.56 212.505 177.388 212.864 177.3 213.311C177.219 213.751 177.179 214.29 177.179 214.928C177.179 215.588 177.219 216.142 177.3 216.589C177.388 217.037 177.56 217.396 177.817 217.667C178.081 217.939 178.462 218.074 178.961 218.074C179.452 218.074 179.826 217.939 180.083 217.667C180.347 217.396 180.519 217.037 180.6 216.589C180.688 216.142 180.732 215.588 180.732 214.928ZM185.895 219.086C185.433 219.086 185.019 219.009 184.652 218.855C184.285 218.694 183.996 218.474 183.783 218.195C183.57 217.909 183.453 217.583 183.431 217.216H184.465C184.494 217.517 184.634 217.763 184.883 217.953C185.14 218.144 185.473 218.239 185.884 218.239C186.265 218.239 186.566 218.155 186.786 217.986C187.006 217.818 187.116 217.605 187.116 217.348C187.116 217.084 186.999 216.89 186.764 216.765C186.529 216.633 186.166 216.505 185.675 216.38C185.228 216.263 184.861 216.146 184.575 216.028C184.296 215.904 184.054 215.724 183.849 215.489C183.651 215.247 183.552 214.932 183.552 214.543C183.552 214.235 183.644 213.953 183.827 213.696C184.01 213.44 184.271 213.238 184.608 213.091C184.945 212.937 185.33 212.86 185.763 212.86C186.43 212.86 186.969 213.029 187.38 213.366C187.791 213.704 188.011 214.166 188.04 214.752H187.039C187.017 214.437 186.889 214.184 186.654 213.993C186.427 213.803 186.119 213.707 185.73 213.707C185.371 213.707 185.085 213.784 184.872 213.938C184.659 214.092 184.553 214.294 184.553 214.543C184.553 214.741 184.615 214.906 184.74 215.038C184.872 215.163 185.033 215.266 185.224 215.346C185.422 215.42 185.693 215.504 186.038 215.599C186.471 215.717 186.823 215.834 187.094 215.951C187.365 216.061 187.596 216.23 187.787 216.457C187.985 216.685 188.088 216.982 188.095 217.348C188.095 217.678 188.003 217.975 187.82 218.239C187.637 218.503 187.376 218.712 187.039 218.866C186.709 219.013 186.328 219.086 185.895 219.086Z" fill="white"/>
<path d="M194.526 218.184C195.457 217.436 196.187 216.824 196.715 216.347C197.243 215.863 197.687 215.361 198.046 214.84C198.413 214.312 198.596 213.795 198.596 213.289C198.596 212.813 198.479 212.439 198.244 212.167C198.017 211.889 197.646 211.749 197.133 211.749C196.634 211.749 196.246 211.907 195.967 212.222C195.696 212.53 195.549 212.945 195.527 213.465H194.559C194.588 212.644 194.838 212.01 195.307 211.562C195.776 211.115 196.381 210.891 197.122 210.891C197.877 210.891 198.475 211.1 198.915 211.518C199.362 211.936 199.586 212.512 199.586 213.245C199.586 213.854 199.403 214.448 199.036 215.027C198.677 215.599 198.266 216.105 197.804 216.545C197.342 216.978 196.752 217.484 196.033 218.063H199.817V218.899H194.526V218.184ZM201.474 214.928C201.474 213.667 201.679 212.684 202.09 211.98C202.501 211.269 203.219 210.913 204.246 210.913C205.265 210.913 205.98 211.269 206.391 211.98C206.802 212.684 207.007 213.667 207.007 214.928C207.007 216.212 206.802 217.209 206.391 217.92C205.98 218.632 205.265 218.987 204.246 218.987C203.219 218.987 202.501 218.632 202.09 217.92C201.679 217.209 201.474 216.212 201.474 214.928ZM206.017 214.928C206.017 214.29 205.973 213.751 205.885 213.311C205.804 212.864 205.632 212.505 205.368 212.233C205.111 211.962 204.737 211.826 204.246 211.826C203.747 211.826 203.366 211.962 203.102 212.233C202.845 212.505 202.673 212.864 202.585 213.311C202.504 213.751 202.464 214.29 202.464 214.928C202.464 215.588 202.504 216.142 202.585 216.589C202.673 217.037 202.845 217.396 203.102 217.667C203.366 217.939 203.747 218.074 204.246 218.074C204.737 218.074 205.111 217.939 205.368 217.667C205.632 217.396 205.804 217.037 205.885 216.589C205.973 216.142 206.017 215.588 206.017 214.928ZM211.18 219.086C210.718 219.086 210.304 219.009 209.937 218.855C209.571 218.694 209.281 218.474 209.068 218.195C208.856 217.909 208.738 217.583 208.716 217.216H209.75C209.78 217.517 209.919 217.763 210.168 217.953C210.425 218.144 210.759 218.239 211.169 218.239C211.551 218.239 211.851 218.155 212.071 217.986C212.291 217.818 212.401 217.605 212.401 217.348C212.401 217.084 212.284 216.89 212.049 216.765C211.815 216.633 211.452 216.505 210.96 216.38C210.513 216.263 210.146 216.146 209.86 216.028C209.582 215.904 209.34 215.724 209.134 215.489C208.936 215.247 208.837 214.932 208.837 214.543C208.837 214.235 208.929 213.953 209.112 213.696C209.296 213.44 209.556 213.238 209.893 213.091C210.231 212.937 210.616 212.86 211.048 212.86C211.716 212.86 212.255 213.029 212.665 213.366C213.076 213.704 213.296 214.166 213.325 214.752H212.324C212.302 214.437 212.174 214.184 211.939 213.993C211.712 213.803 211.404 213.707 211.015 213.707C210.656 213.707 210.37 213.784 210.157 213.938C209.945 214.092 209.838 214.294 209.838 214.543C209.838 214.741 209.901 214.906 210.025 215.038C210.157 215.163 210.319 215.266 210.509 215.346C210.707 215.42 210.979 215.504 211.323 215.599C211.756 215.717 212.108 215.834 212.379 215.951C212.651 216.061 212.882 216.23 213.072 216.457C213.27 216.685 213.373 216.982 213.38 217.348C213.38 217.678 213.289 217.975 213.105 218.239C212.922 218.503 212.662 218.712 212.324 218.866C211.994 219.013 211.613 219.086 211.18 219.086Z" fill="white"/>
<path d="M218.818 211.947V211.034H220.886V218.987H219.874V211.947H218.818ZM223.106 214.928C223.106 213.667 223.311 212.684 223.722 211.98C224.132 211.269 224.851 210.913 225.878 210.913C226.897 210.913 227.612 211.269 228.023 211.98C228.433 212.684 228.639 213.667 228.639 214.928C228.639 216.212 228.433 217.209 228.023 217.92C227.612 218.632 226.897 218.987 225.878 218.987C224.851 218.987 224.132 218.632 223.722 217.92C223.311 217.209 223.106 216.212 223.106 214.928ZM227.649 214.928C227.649 214.29 227.605 213.751 227.517 213.311C227.436 212.864 227.264 212.505 227 212.233C226.743 211.962 226.369 211.826 225.878 211.826C225.379 211.826 224.998 211.962 224.734 212.233C224.477 212.505 224.305 212.864 224.217 213.311C224.136 213.751 224.096 214.29 224.096 214.928C224.096 215.588 224.136 216.142 224.217 216.589C224.305 217.037 224.477 217.396 224.734 217.667C224.998 217.939 225.379 218.074 225.878 218.074C226.369 218.074 226.743 217.939 227 217.667C227.264 217.396 227.436 217.037 227.517 216.589C227.605 216.142 227.649 215.588 227.649 214.928ZM232.812 219.086C232.35 219.086 231.936 219.009 231.569 218.855C231.202 218.694 230.913 218.474 230.7 218.195C230.487 217.909 230.37 217.583 230.348 217.216H231.382C231.411 217.517 231.551 217.763 231.8 217.953C232.057 218.144 232.39 218.239 232.801 218.239C233.182 218.239 233.483 218.155 233.703 217.986C233.923 217.818 234.033 217.605 234.033 217.348C234.033 217.084 233.916 216.89 233.681 216.765C233.446 216.633 233.083 216.505 232.592 216.38C232.145 216.263 231.778 216.146 231.492 216.028C231.213 215.904 230.971 215.724 230.766 215.489C230.568 215.247 230.469 214.932 230.469 214.543C230.469 214.235 230.561 213.953 230.744 213.696C230.927 213.44 231.188 213.238 231.525 213.091C231.862 212.937 232.247 212.86 232.68 212.86C233.347 212.86 233.886 213.029 234.297 213.366C234.708 213.704 234.928 214.166 234.957 214.752H233.956C233.934 214.437 233.806 214.184 233.571 213.993C233.344 213.803 233.036 213.707 232.647 213.707C232.288 213.707 232.002 213.784 231.789 213.938C231.576 214.092 231.47 214.294 231.47 214.543C231.47 214.741 231.532 214.906 231.657 215.038C231.789 215.163 231.95 215.266 232.141 215.346C232.339 215.42 232.61 215.504 232.955 215.599C233.388 215.717 233.74 215.834 234.011 215.951C234.282 216.061 234.513 216.23 234.704 216.457C234.902 216.685 235.005 216.982 235.012 217.348C235.012 217.678 234.92 217.975 234.737 218.239C234.554 218.503 234.293 218.712 233.956 218.866C233.626 219.013 233.245 219.086 232.812 219.086Z" fill="white"/>
<path d="M25.0165 38.9764L21.9585 46.1484H20.9465L24.0485 39.0754H19.8025V38.2174H25.0165V38.9764ZM31.6973 39.0644H27.8363V41.5724C28.005 41.3378 28.2543 41.1471 28.5843 41.0004C28.9143 40.8464 29.27 40.7694 29.6513 40.7694C30.26 40.7694 30.755 40.8978 31.1363 41.1544C31.5177 41.4038 31.789 41.7301 31.9503 42.1334C32.119 42.5294 32.2033 42.9511 32.2033 43.3984C32.2033 43.9264 32.1043 44.3994 31.9063 44.8174C31.7083 45.2354 31.404 45.5654 30.9933 45.8074C30.59 46.0494 30.0877 46.1704 29.4863 46.1704C28.7163 46.1704 28.093 45.9724 27.6163 45.5764C27.1397 45.1804 26.85 44.6524 26.7473 43.9924H27.7263C27.8217 44.4104 28.0233 44.7368 28.3313 44.9714C28.6393 45.2061 29.028 45.3234 29.4973 45.3234C30.0767 45.3234 30.513 45.1511 30.8063 44.8064C31.0997 44.4544 31.2463 43.9924 31.2463 43.4204C31.2463 42.8484 31.0997 42.4084 30.8063 42.1004C30.513 41.7851 30.0803 41.6274 29.5083 41.6274C29.1197 41.6274 28.7787 41.7228 28.4853 41.9134C28.1993 42.0968 27.9903 42.3498 27.8583 42.6724H26.9123V38.1844H31.6973V39.0644ZM40.9972 46.1484L38.6322 43.4864V46.1484H37.6312V38.0084H38.6322V42.7934L40.9532 40.1204H42.3502L39.5122 43.1234L42.3612 46.1484H40.9972ZM51.0413 40.0104C51.5106 40.0104 51.9286 40.1094 52.2953 40.3074C52.662 40.4981 52.9516 40.7878 53.1643 41.1764C53.377 41.5651 53.4833 42.0381 53.4833 42.5954V46.1484H52.4933V42.7384C52.4933 42.1371 52.343 41.6788 52.0423 41.3634C51.749 41.0408 51.3493 40.8794 50.8433 40.8794C50.3226 40.8794 49.9083 41.0481 49.6003 41.3854C49.2923 41.7154 49.1383 42.1958 49.1383 42.8264V46.1484H48.1483V42.7384C48.1483 42.1371 47.998 41.6788 47.6973 41.3634C47.404 41.0408 47.0043 40.8794 46.4983 40.8794C45.9776 40.8794 45.5633 41.0481 45.2553 41.3854C44.9473 41.7154 44.7933 42.1958 44.7933 42.8264V46.1484H43.7923V40.1204H44.7933V40.9894C44.9913 40.6741 45.2553 40.4321 45.5853 40.2634C45.9226 40.0948 46.293 40.0104 46.6963 40.0104C47.2023 40.0104 47.6496 40.1241 48.0383 40.3514C48.427 40.5788 48.7166 40.9124 48.9073 41.3524C49.076 40.9271 49.3546 40.5971 49.7433 40.3624C50.132 40.1278 50.5646 40.0104 51.0413 40.0104Z" fill="white"/>
<path d="M25.1925 89.9795H21.3315V92.4875C21.5001 92.2528 21.7495 92.0621 22.0795 91.9155C22.4095 91.7615 22.7651 91.6845 23.1465 91.6845C23.7551 91.6845 24.2501 91.8128 24.6315 92.0695C25.0128 92.3188 25.2841 92.6451 25.4455 93.0485C25.6141 93.4445 25.6985 93.8661 25.6985 94.3135C25.6985 94.8415 25.5995 95.3145 25.4015 95.7325C25.2035 96.1505 24.8991 96.4805 24.4885 96.7225C24.0851 96.9645 23.5828 97.0855 22.9815 97.0855C22.2115 97.0855 21.5881 96.8875 21.1115 96.4915C20.6348 96.0955 20.3451 95.5675 20.2425 94.9075H21.2215C21.3168 95.3255 21.5185 95.6518 21.8265 95.8865C22.1345 96.1211 22.5231 96.2385 22.9925 96.2385C23.5718 96.2385 24.0081 96.0661 24.3015 95.7215C24.5948 95.3695 24.7415 94.9075 24.7415 94.3355C24.7415 93.7635 24.5948 93.3235 24.3015 93.0155C24.0081 92.7001 23.5755 92.5425 23.0035 92.5425C22.6148 92.5425 22.2738 92.6378 21.9805 92.8285C21.6945 93.0118 21.4855 93.2648 21.3535 93.5875H20.4075V89.0995H25.1925V89.9795ZM27.5287 93.0045C27.5287 91.7431 27.734 90.7605 28.1447 90.0565C28.5553 89.3451 29.274 88.9895 30.3007 88.9895C31.32 88.9895 32.035 89.3451 32.4457 90.0565C32.8563 90.7605 33.0617 91.7431 33.0617 93.0045C33.0617 94.2878 32.8563 95.2851 32.4457 95.9965C32.035 96.7078 31.32 97.0635 30.3007 97.0635C29.274 97.0635 28.5553 96.7078 28.1447 95.9965C27.734 95.2851 27.5287 94.2878 27.5287 93.0045ZM32.0717 93.0045C32.0717 92.3665 32.0277 91.8275 31.9397 91.3875C31.859 90.9401 31.6867 90.5808 31.4227 90.3095C31.166 90.0381 30.792 89.9025 30.3007 89.9025C29.802 89.9025 29.4207 90.0381 29.1567 90.3095C28.9 90.5808 28.7277 90.9401 28.6397 91.3875C28.559 91.8275 28.5187 92.3665 28.5187 93.0045C28.5187 93.6645 28.559 94.2181 28.6397 94.6655C28.7277 95.1128 28.9 95.4721 29.1567 95.7435C29.4207 96.0148 29.802 96.1505 30.3007 96.1505C30.792 96.1505 31.166 96.0148 31.4227 95.7435C31.6867 95.4721 31.859 95.1128 31.9397 94.6655C32.0277 94.2181 32.0717 93.6645 32.0717 93.0045ZM41.8995 97.0635L39.5345 94.4015V97.0635H38.5335V88.9235H39.5345V93.7085L41.8555 91.0355H43.2525L40.4145 94.0385L43.2635 97.0635H41.8995ZM51.9437 90.9255C52.413 90.9255 52.831 91.0245 53.1977 91.2225C53.5643 91.4131 53.854 91.7028 54.0667 92.0915C54.2793 92.4801 54.3857 92.9531 54.3857 93.5105V97.0635H53.3957V93.6535C53.3957 93.0521 53.2453 92.5938 52.9447 92.2785C52.6513 91.9558 52.2517 91.7945 51.7457 91.7945C51.225 91.7945 50.8107 91.9631 50.5027 92.3005C50.1947 92.6305 50.0407 93.1108 50.0407 93.7415V97.0635H49.0507V93.6535C49.0507 93.0521 48.9003 92.5938 48.5997 92.2785C48.3063 91.9558 47.9067 91.7945 47.4007 91.7945C46.88 91.7945 46.4657 91.9631 46.1577 92.3005C45.8497 92.6305 45.6957 93.1108 45.6957 93.7415V97.0635H44.6947V91.0355H45.6957V91.9045C45.8937 91.5891 46.1577 91.3471 46.4877 91.1785C46.825 91.0098 47.1953 90.9255 47.5987 90.9255C48.1047 90.9255 48.552 91.0391 48.9407 91.2665C49.3293 91.4938 49.619 91.8275 49.8097 92.2675C49.9783 91.8421 50.257 91.5121 50.6457 91.2775C51.0343 91.0428 51.467 90.9255 51.9437 90.9255Z" fill="white"/>
<path d="M20.0005 147.175C20.9318 146.427 21.6615 145.814 22.1895 145.338C22.7175 144.854 23.1611 144.351 23.5205 143.831C23.8871 143.303 24.0705 142.786 24.0705 142.28C24.0705 141.803 23.9531 141.429 23.7185 141.158C23.4911 140.879 23.1208 140.74 22.6075 140.74C22.1088 140.74 21.7201 140.897 21.4415 141.213C21.1701 141.521 21.0235 141.935 21.0015 142.456H20.0335C20.0628 141.634 20.3121 141 20.7815 140.553C21.2508 140.105 21.8558 139.882 22.5965 139.882C23.3518 139.882 23.9495 140.091 24.3895 140.509C24.8368 140.927 25.0605 141.502 25.0605 142.236C25.0605 142.844 24.8771 143.438 24.5105 144.018C24.1511 144.59 23.7405 145.096 23.2785 145.536C22.8165 145.968 22.2261 146.474 21.5075 147.054H25.2915V147.89H20.0005V147.175ZM32.0196 140.894H28.1586V143.402C28.3273 143.167 28.5766 142.976 28.9066 142.83C29.2366 142.676 29.5923 142.599 29.9736 142.599C30.5823 142.599 31.0773 142.727 31.4586 142.984C31.8399 143.233 32.1113 143.559 32.2726 143.963C32.4413 144.359 32.5256 144.78 32.5256 145.228C32.5256 145.756 32.4266 146.229 32.2286 146.647C32.0306 147.065 31.7263 147.395 31.3156 147.637C30.9123 147.879 30.4099 148 29.8086 148C29.0386 148 28.4153 147.802 27.9386 147.406C27.4619 147.01 27.1723 146.482 27.0696 145.822H28.0486C28.1439 146.24 28.3456 146.566 28.6536 146.801C28.9616 147.035 29.3503 147.153 29.8196 147.153C30.3989 147.153 30.8353 146.98 31.1286 146.636C31.4219 146.284 31.5686 145.822 31.5686 145.25C31.5686 144.678 31.4219 144.238 31.1286 143.93C30.8353 143.614 30.4026 143.457 29.8306 143.457C29.4419 143.457 29.1009 143.552 28.8076 143.743C28.5216 143.926 28.3126 144.179 28.1806 144.502H27.2346V140.014H32.0196V140.894ZM41.3194 147.978L38.9544 145.316V147.978H37.9534V139.838H38.9544V144.623L41.2754 141.95H42.6724L39.8344 144.953L42.6834 147.978H41.3194ZM51.3636 141.84C51.8329 141.84 52.2509 141.939 52.6176 142.137C52.9842 142.327 53.2739 142.617 53.4866 143.006C53.6992 143.394 53.8056 143.867 53.8056 144.425V147.978H52.8156V144.568C52.8156 143.966 52.6652 143.508 52.3646 143.193C52.0712 142.87 51.6716 142.709 51.1656 142.709C50.6449 142.709 50.2306 142.877 49.9226 143.215C49.6146 143.545 49.4606 144.025 49.4606 144.656V147.978H48.4706V144.568C48.4706 143.966 48.3202 143.508 48.0196 143.193C47.7262 142.87 47.3266 142.709 46.8206 142.709C46.2999 142.709 45.8856 142.877 45.5776 143.215C45.2696 143.545 45.1156 144.025 45.1156 144.656V147.978H44.1146V141.95H45.1156V142.819C45.3136 142.503 45.5776 142.261 45.9076 142.093C46.2449 141.924 46.6152 141.84 47.0186 141.84C47.5246 141.84 47.9719 141.953 48.3606 142.181C48.7492 142.408 49.0389 142.742 49.2296 143.182C49.3982 142.756 49.6769 142.426 50.0656 142.192C50.4542 141.957 50.8869 141.84 51.3636 141.84Z" fill="white"/>
<path d="M20.1215 194.834C20.1215 193.572 20.3268 192.59 20.7375 191.886C21.1481 191.174 21.8668 190.819 22.8935 190.819C23.9128 190.819 24.6278 191.174 25.0385 191.886C25.4491 192.59 25.6545 193.572 25.6545 194.834C25.6545 196.117 25.4491 197.114 25.0385 197.826C24.6278 198.537 23.9128 198.893 22.8935 198.893C21.8668 198.893 21.1481 198.537 20.7375 197.826C20.3268 197.114 20.1215 196.117 20.1215 194.834ZM24.6645 194.834C24.6645 194.196 24.6205 193.657 24.5325 193.217C24.4518 192.769 24.2795 192.41 24.0155 192.139C23.7588 191.867 23.3848 191.732 22.8935 191.732C22.3948 191.732 22.0135 191.867 21.7495 192.139C21.4928 192.41 21.3205 192.769 21.2325 193.217C21.1518 193.657 21.1115 194.196 21.1115 194.834C21.1115 195.494 21.1518 196.047 21.2325 196.495C21.3205 196.942 21.4928 197.301 21.7495 197.573C22.0135 197.844 22.3948 197.98 22.8935 197.98C23.3848 197.98 23.7588 197.844 24.0155 197.573C24.2795 197.301 24.4518 196.942 24.5325 196.495C24.6205 196.047 24.6645 195.494 24.6645 194.834ZM34.4923 198.893L32.1273 196.231V198.893H31.1263V190.753H32.1273V195.538L34.4483 192.865H35.8453L33.0073 195.868L35.8563 198.893H34.4923ZM44.5364 192.755C45.0058 192.755 45.4238 192.854 45.7904 193.052C46.1571 193.242 46.4468 193.532 46.6594 193.921C46.8721 194.309 46.9784 194.782 46.9784 195.34V198.893H45.9884V195.483C45.9884 194.881 45.8381 194.423 45.5374 194.108C45.2441 193.785 44.8444 193.624 44.3384 193.624C43.8178 193.624 43.4034 193.792 43.0954 194.13C42.7874 194.46 42.6334 194.94 42.6334 195.571V198.893H41.6434V195.483C41.6434 194.881 41.4931 194.423 41.1924 194.108C40.8991 193.785 40.4994 193.624 39.9934 193.624C39.4728 193.624 39.0584 193.792 38.7504 194.13C38.4424 194.46 38.2884 194.94 38.2884 195.571V198.893H37.2874V192.865H38.2884V193.734C38.4864 193.418 38.7504 193.176 39.0804 193.008C39.4178 192.839 39.7881 192.755 40.1914 192.755C40.6974 192.755 41.1448 192.868 41.5334 193.096C41.9221 193.323 42.2118 193.657 42.4024 194.097C42.5711 193.671 42.8498 193.341 43.2384 193.107C43.6271 192.872 44.0598 192.755 44.5364 192.755Z" fill="white"/>
<path d="M53.0332 148.239C75.5262 148.239 72.8685 92.585 95.3615 92.585C117.854 92.585 115.193 107.426 137.686 107.426C160.179 107.426 156.714 131.808 179.207 131.808C201.7 131.808 205.51 144.333 228.003 144.333" stroke="#48CAE4" stroke-width="5.81515" stroke-linecap="round"/>
<path d="M53.0332 131.543C74.9997 131.543 77.8057 92.7764 99.7722 92.7764C121.739 92.7764 118.097 61.9756 140.063 61.9756C162.03 61.9756 161.61 105.522 183.577 105.522C205.543 105.522 206.736 127.47 228.703 127.47" stroke="#0096C7" stroke-opacity="0.07" stroke-width="34" stroke-linecap="round"/>
<path d="M53.0332 131.543C74.9997 131.543 77.8057 92.7764 99.7722 92.7764C121.739 92.7764 118.097 61.9756 140.063 61.9756C162.03 61.9756 161.61 105.522 183.577 105.522C205.543 105.522 206.736 127.47 228.703 127.47" stroke="#0096C7" stroke-width="5.81515" stroke-linecap="round"/>
</svg>
