<svg width="146" height="409" viewBox="0 0 146 409" fill="none" xmlns="http://www.w3.org/2000/svg">
<path d="M109.121 63.2778L111.464 63.9547C123.326 67.3403 126.109 78.3653 124.398 91.9998C124.456 94.2013 124.808 96.3314 125.454 98.3903C134.179 119.802 129.621 121.091 134.776 139.176C134.848 139.397 134.847 139.543 134.845 139.763C136.73 143.005 135.793 171.612 134.127 189.356C134.198 189.723 134.196 190.016 134.12 190.383C133.414 196.834 133.272 196.099 134.063 198.306C134.855 200.513 137.928 211.98 137.997 212.641C138.137 213.669 138.129 214.696 137.976 215.649C137.366 218.873 136.751 222.83 135.428 223.188C134.68 225.163 133.497 226.476 132.761 226.837C130.984 229.099 130.46 230.489 129.729 230.191C128.997 229.892 128.71 229.01 129.009 228.278C129.009 228.278 129.009 228.278 129.009 228.205C129.309 227.253 128.937 227.984 128.343 229.08C127.6 230.396 126.93 231.785 126.414 232.075C124.295 230.813 125.708 228.108 126.97 226.063C127.712 224.894 126.601 226.353 125.265 228.545C124.077 230.518 122.891 232.27 122.599 232.048C119.825 230.121 123.387 224.35 123.979 223.694C123.919 221.786 123.932 219.951 124.019 218.044C123.441 216.793 123.016 214.662 122.744 211.506C122.442 212.751 121.994 213.921 121.545 215.092C120.88 215.821 122.668 222.29 117.679 222.255C117.697 219.761 117.721 216.312 117.738 213.965C117.752 212.057 118.373 207.146 118.387 205.238C118.4 203.331 122.691 198.372 122.912 198.154C123.08 195.147 122.956 192.064 122.683 189.054C122.684 188.981 122.685 188.834 122.759 188.761C121.856 181.565 119.634 174.212 118.125 169.653C116.617 165.093 113.892 156.196 114.45 149.891C114.378 149.67 114.307 149.376 114.382 149.156C114.323 147.175 114.557 145.122 115.158 143.219C109.431 133.494 106.28 122.466 106.14 111.166C104.324 119.077 98.9685 129.311 98.9253 135.4C98.8733 142.737 101.033 148.622 100.998 153.464C100.978 156.398 100.141 160.501 98.489 165.919C101.382 171.809 113.287 200.213 115.099 223.998C116.844 246.974 117.175 262.384 114.716 278.068C120.094 285.296 122.209 307.762 118.369 331.946C116.912 340.96 118.68 360.562 120.297 370.552C121.914 380.541 110.835 380.536 106.967 377.574C104.778 375.871 101.293 370.784 102.858 367.347C102.764 359.936 100.429 337.322 94.6751 321.066C91.6551 312.387 91.9016 298.302 92.323 290.602C92.2528 290.161 92.1092 289.72 92.0389 289.279C91.1882 285.091 91.7111 283.774 91.8016 281.353C89.4263 274.88 83.1959 263.684 80.9179 253.836C78.9963 245.459 77.2292 235.982 75.47 225.404L73.6363 225.318C72.9563 228.101 72.4225 230.959 72.0349 233.891C71.474 240.563 72.2754 251.721 62.0097 281.949C61.9795 286.205 63.2965 286.728 62.7465 291.859C62.5889 293.399 62.3584 294.865 61.9807 296.403C64.1166 305.589 66.2084 321.011 59.4334 334.903C54.9655 344.19 52.3786 357.231 53.8688 364.358C55.7529 367.673 54.819 375.223 52.8246 377.117C49.2063 380.393 35.3554 378.167 37.1161 367.835C38.8768 357.502 38.9875 341.875 36.1397 329.603C33.5755 318.726 34.5479 305.746 36.921 291.823C36.9246 291.31 36.9283 290.796 36.9324 290.209C36.9506 287.641 37.0406 285.294 37.203 283.094C35.9942 277.657 34.4124 273.096 32.8472 255.844C32.0292 247.034 33.1083 239.704 32.9469 231.413C33.7246 204.492 38.7215 172.318 41.1878 165.953L41.3345 165.954C40.989 162.943 40.7908 159.86 40.7387 156.852C40.7652 153.11 43.0967 145.056 43.8834 137.578C44.5098 132.007 41.3239 126.041 39.241 119.717C38.4512 127.635 34.5057 135.678 29.3972 142.171C34.8727 166.715 25.3322 177.433 22.5533 196.856C22.9175 197.225 23.2084 197.594 23.4993 197.963C26.6248 202.094 27.0999 207.526 25.0723 214.115C26.0838 216.323 26.8086 217.576 27.2457 218.019C28.4856 219.055 29.5174 218.402 29.8608 221.706C28.763 221.331 27.5189 220.882 26.4215 220.434C28.8306 222.139 29.5523 223.832 28.7344 225.367L25.5193 223.51C26.3211 224.249 26.8279 225.206 26.9674 226.234C26.8867 227.261 26.5865 228.213 26.0667 229.089L23.0894 224.74L19.1797 217.375L21.4078 223.921C22.9339 225.986 23.7279 227.826 23.8642 229.294C24.0006 230.762 23.4808 231.639 22.1591 231.776C19.543 228.236 17.9445 226.024 17.3628 225.286C15.8414 222.561 14.5406 219.763 13.4609 216.821C12.9593 215.13 12.8417 211.02 13.1091 204.346C13.045 203.025 13.0549 201.631 13.211 200.311C14.467 188.728 8.35467 171.223 10.2438 153.114C10.5622 149.595 11.3942 146.079 12.6648 142.786C12.9796 139.78 14.7684 135.831 14.6399 133.262C13.508 106.622 19.782 111.655 19.5051 98.9603C19.2282 86.2656 18.481 77.8229 23.3668 71.6945C27.1427 66.8789 35.6728 64.1514 40.8843 63.8214C41.9171 63.0217 43.0956 62.3697 44.2736 61.7911C47.7332 60.2015 51.3385 58.7597 54.9427 57.4646C59.3118 51.7728 58.5147 50.3731 58.5859 40.3221C58.6581 30.1244 84.3037 34.855 84.273 39.1835C84.2444 43.2186 82.1986 52.3752 87.304 56.6667" fill="url(#paint0_linear_390_1231)"/>
<path d="M127.549 216.822L128.312 223.137" stroke="#F29353" stroke-width="1.14" stroke-linecap="round"/>
<path d="M131.217 216.848L131.457 224.407L130.418 226.087" stroke="#F29353" stroke-width="1.14" stroke-linecap="round"/>
<path d="M135.488 214.677L135.289 222.013L133.873 225.231" stroke="#F29353" stroke-width="1.14" stroke-linecap="round"/>
<path d="M123.538 213.492L122.754 210.112L121.928 212.894" stroke="#F29353" stroke-width="1.14" stroke-linecap="round"/>
<path d="M123.663 195.738L122.836 198.593" stroke="#F29353" stroke-width="1.14" stroke-linecap="round"/>
<path d="M107.457 101.418C107.147 103.69 107.933 106.704 109.962 110.313" stroke="#EE8B48" stroke-width="1.14" stroke-linecap="round"/>
<path d="M119.245 135.911C117.763 137.955 116.646 140.221 115.969 142.638" stroke="#F29353" stroke-width="1.14" stroke-linecap="round"/>
<path d="M42.4608 286.58C41.403 290.901 41.8922 294.353 43.8543 297.008C45.8165 299.663 46.8108 304.293 46.6907 310.895" stroke="#F08944" stroke-width="1.14" stroke-linecap="round"/>
<path d="M57.5038 286.246C58.6417 291.317 58.3223 294.983 56.4731 297.098" stroke="#F08944" stroke-width="1.14" stroke-linecap="round"/>
<path d="M42.7666 108.81C39.0411 106.509 37.3958 100.554 36.2225 100.473C35.0492 100.391 33.4097 103.975 31.0454 106.306" stroke="#EE8B48" stroke-width="1.14" stroke-linecap="round"/>
<path d="M37.3698 104.223C37.4151 108.185 36.5805 112.068 35.0144 115.651" stroke="#EE8B48" stroke-width="1.14" stroke-linecap="round"/>
<path d="M38.1841 103.201C41.0022 109.311 46.0519 111.108 54.7823 111.169C63.5128 111.231 70.1224 110.324 70.6848 103.432" stroke="#EE8B48" stroke-width="1.14" stroke-linecap="round"/>
<path d="M100.725 109.221C104.483 106.973 106.212 101.042 107.387 100.977C108.561 100.912 110.149 104.518 112.48 106.883" stroke="#EE8B48" stroke-width="1.14" stroke-linecap="round"/>
<path d="M105.386 103.678C102.482 109.747 97.4074 111.471 88.677 111.41C79.9466 111.348 73.3505 110.347 72.8858 103.447" stroke="#EE8B48" stroke-width="1.14" stroke-linecap="round"/>
<path d="M85.3335 55.1855C85.6124 57.2418 86.112 59.2263 86.8316 61.2124" stroke="#F89451" stroke-width="1.14" stroke-linecap="round"/>
<path d="M56.9356 55.7914C56.8502 57.4782 56.5448 59.1636 56.0932 60.7745" stroke="#F89451" stroke-width="1.14" stroke-linecap="round"/>
<path d="M94.782 285.263C94.6041 289.664 95.5344 292.972 97.647 295.115C99.7595 297.258 101.27 301.524 102.325 307.988" stroke="#F08944" stroke-width="1.14" stroke-linecap="round"/>
<path d="M109.743 286.103C110.367 291.317 109.681 294.833 107.613 296.8" stroke="#F08944" stroke-width="1.14" stroke-linecap="round"/>
<path fill-rule="evenodd" clip-rule="evenodd" d="M28.3105 399.101C29.1633 402.995 32.446 405.66 37.427 406.795C42.408 407.931 51.3612 407.628 54.162 405.813C56.9629 403.999 62.4382 397.508 54.8081 387.109C56.981 380.741 60.3895 375.997 54.6467 368.472C52.04 373.956 43.989 371.185 38.0631 368.795C36.6728 368.272 33.6545 380.063 32.6608 385.705C29.2324 393.238 27.1048 393.222 28.3105 399.101Z" fill="#C6C6C6"/>
<path fill-rule="evenodd" clip-rule="evenodd" d="M41.3016 367.351C43.5858 365.973 46.5193 366.14 48.6349 367.843C49.2187 368.287 50.16 370.055 51.6304 369.625C53.9094 368.981 53.706 366.632 54.5187 365.83C55.3314 365.029 57.5626 371.134 55.4678 376.842C53.3731 382.55 57.6398 391.311 57.6398 391.311C57.6398 391.311 59.6909 402.111 52.0584 402.424C49.8564 402.555 49.9401 401.088 43.6281 401.41C39.8116 401.603 40.6025 403.883 34.8946 401.789C29.1867 399.694 27.7532 394.915 28.8708 392.502C30.0628 389.942 32.295 385.556 33.5739 381.089C33.7726 373.754 35.1285 368.774 37.4949 366.15C37.5579 367.618 38.5787 368.505 39.0923 368.509C40.7058 368.594 40.7115 367.787 41.3016 367.351Z" fill="black"/>
<path fill-rule="evenodd" clip-rule="evenodd" d="M38.4617 374.667L47.609 378.034L40.2407 382.457L48.0669 385.888L39.2589 386.412L47.801 381.997L40.0487 378.494L48.738 374.007L38.4617 374.667Z" stroke="white" stroke-width="1.07" stroke-linecap="round" stroke-linejoin="round"/>
<path fill-rule="evenodd" clip-rule="evenodd" d="M129.407 399.817C128.646 403.773 125.398 406.465 120.474 407.677C115.55 408.89 106.526 408.826 103.677 407.045C100.828 405.337 95.224 398.914 102.709 388.402C100.406 382.076 96.917 377.429 102.474 369.765C105.223 375.214 113.168 372.262 119.055 369.736C120.454 369.159 123.672 380.921 124.806 386.505C128.421 394.014 130.549 393.956 129.407 399.817Z" fill="#C6C6C6"/>
<path fill-rule="evenodd" clip-rule="evenodd" d="M115.837 368.319C113.499 366.982 110.562 367.254 108.496 369.001C107.905 369.51 107.013 371.191 105.548 370.814C103.278 370.211 104.103 367.722 103.301 366.983C102.499 366.244 99.6668 372.46 101.828 378.125C104.062 383.79 99.9641 392.638 99.9641 392.638C99.9641 392.638 98.1264 403.484 105.829 403.612C108.03 403.627 107.967 402.233 114.202 402.424C118.016 402.524 117.266 404.867 123.004 402.633C128.743 400.399 129.951 395.565 128.794 393.209C127.565 390.633 125.248 386.288 123.812 381.875C123.424 374.536 121.992 369.537 119.588 367.025C119.505 368.492 118.544 369.439 118.104 369.436C116.489 369.571 116.421 368.763 115.837 368.319Z" fill="black"/>
<path fill-rule="evenodd" clip-rule="evenodd" d="M118.794 375.603L109.744 379.134L117.124 383.442L109.395 387.056L118.27 387.412L109.57 383.095L117.299 379.481L108.525 375.164L118.794 375.603Z" stroke="white" stroke-width="1.07" stroke-linecap="round" stroke-linejoin="round"/>
<g opacity="0.42" filter="url(#filter0_f_390_1231)">
<path fill-rule="evenodd" clip-rule="evenodd" d="M59.7405 43.045C59.9294 47.4485 60.8031 58.7535 65.4069 61.354C70.0107 63.9545 75.4402 63.9196 78.2458 61.445C81.0513 58.9703 83.8261 50.4792 83.9593 42.0427C84.7335 36.3255 57.8725 37.4558 59.7405 43.045Z" fill="#915D2E" fill-opacity="0.7"/>
</g>
<path fill-rule="evenodd" clip-rule="evenodd" d="M57.1624 44.4942C57.421 49.4118 63.2439 55.9828 65.6509 57.9808C68.0579 59.9788 74.3621 60.7572 77.1692 58.0624C79.9763 55.3677 82.4931 52.2307 83.093 50.4007C83.6929 48.5707 85.5556 44.5487 85.8574 43.3769C87.7394 46.9853 94.9712 30.7487 88.6535 31.8778C88.6842 27.5493 89.1992 16.9879 83.3633 12.2509C77.5274 7.51397 69.9031 6.65289 61.8798 10.3378C53.8566 14.0228 52.3331 21.9358 54.0924 32.5134C55.5571 32.8906 48.5983 31.3006 51.2619 38.5096C53.0695 42.2642 53.0456 45.639 57.1624 44.4942Z" fill="#FFD4AB"/>
<path d="M70.569 57.6489L72.2564 57.6609" stroke="#EA833E" stroke-width="1.14" stroke-linecap="round"/>
<path d="M89.5157 34.4519C86.935 36.2678 85.6045 37.6524 85.5972 38.6795" stroke="#EA833E" stroke-width="1.14" stroke-linecap="round"/>
<path d="M87.5906 36.9327L87.5781 38.6935L85.5775 41.4673" stroke="#EA833E" stroke-width="1.14" stroke-linecap="round"/>
<path d="M52.238 35.3616C53.7022 35.8122 54.8677 36.9943 55.2975 38.4647" stroke="#EA833E" stroke-width="1.14" stroke-linecap="round"/>
<path d="M53.6959 36.6926L54.0425 39.5565L55.8646 41.2569" stroke="#EA833E" stroke-width="1.14" stroke-linecap="round"/>
<path opacity="0.75" fill-rule="evenodd" clip-rule="evenodd" d="M98.3739 166.115C88.2377 172.769 45.7267 171.642 40.941 166.045C37.8682 153.826 42.8011 146.472 43.2787 136.395C43.504 131.64 40.3512 127.366 39.3785 120.273C38.4987 116.429 38.0682 113.173 38.0871 110.506C42.8702 105.445 45.2995 97.5809 45.3751 86.9139C45.4844 71.492 42.5782 67.7094 40.8515 63.652C40.4477 62.9135 42.5366 61.6976 44.8462 60.7857C47.5097 59.7341 50.3411 58.2165 50.7183 58.8164C50.7085 60.2028 56.127 80.2127 71.0153 80.3182C85.9036 80.4237 90.5687 77.0425 94.6929 58.9889C94.5267 58.4688 96.4964 58.9187 99.7923 59.8243C103.088 60.7299 105.604 61.5885 104.944 61.9986C103.917 62.4173 103.507 65.4248 100.925 84.4923C98.3428 103.56 103.65 103.709 106.609 107.215C106.673 110.083 106.234 113.409 105.291 117.191C100.468 128.101 98.7752 136.849 100.214 143.437C102.372 153.319 102.646 162.069 98.3739 166.115Z" fill="#FFFAF9"/>
<path opacity="0.85" fill-rule="evenodd" clip-rule="evenodd" d="M72.7361 236.104L73.4536 229.137L75.3037 229.122L75.9776 236.127C90.6862 236.284 101.045 235.504 107.053 233.786C111.801 232.428 114.814 228.766 116.09 222.8C112.948 205.034 110.004 192.217 107.257 184.351C104.574 176.668 100.323 165.932 98.489 165.919C71.1999 173.343 45.888 168.629 41.1878 165.953C39.6906 165.839 39.0174 170.971 37.9971 175.432C36.4139 182.353 32.9446 212.494 32.3828 224.624C32.3202 233.459 45.7713 237.286 72.7361 236.104Z" fill="black"/>
<path d="M87.3066 31.9146C87.5275 29.9179 88.0403 28.5474 86.9398 24.2111C85.5795 20.5655 82.5791 18.0374 82.8258 13.6358C80.488 11.8053 75.445 15.2896 70.3977 15.9986C65.3503 16.7076 55.3918 14.0054 56.1255 22.0757C57.226 28.096 55.6354 28.5019 56.1255 33.3819L54.2915 32.6482C52.8242 30.8141 49.9449 21.649 51.7629 11.7892C53.5809 1.92933 74.7098 -7.76614 84.5194 9.46693C94.208 6.6086 89.3682 29.7036 89.1408 31.9146H87.3066Z" fill="black"/>
<defs>
<filter id="filter0_f_390_1231" x="55.6474" y="34.2664" width="32.3283" height="33.0364" filterUnits="userSpaceOnUse" color-interpolation-filters="sRGB">
<feFlood flood-opacity="0" result="BackgroundImageFix"/>
<feBlend mode="normal" in="SourceGraphic" in2="BackgroundImageFix" result="shape"/>
<feGaussianBlur stdDeviation="2" result="effect1_foregroundBlur_390_1231"/>
</filter>
<linearGradient id="paint0_linear_390_1231" x1="74.3151" y1="-17.7958" x2="90.0956" y2="471.271" gradientUnits="userSpaceOnUse">
<stop stop-color="#FFD6A7"/>
<stop offset="0.49" stop-color="#FFCFB0"/>
<stop offset="1" stop-color="#FFB783"/>
</linearGradient>
</defs>
</svg>