<svg width="191" height="80" viewBox="0 0 191 80" fill="none" xmlns="http://www.w3.org/2000/svg">
<path d="M44.5268 39.7124C30.6163 37.5678 21.3533 39.143 9 45.7541C9 64.3915 24.1085 79.5 42.7459 79.5H144C164.987 79.5 182 62.4868 182 41.5V9C171.142 13.7189 165.566 17.7085 154.196 21.0836C135.836 26.5336 121.978 16.3676 105.283 25.6149C90.7445 33.6674 94.5382 55.5518 77.994 57.8377C63.2005 59.8817 59.2849 41.9876 44.5268 39.7124Z" fill="url(#paint0_linear_205_777)" fill-opacity="0.4"/>
<g filter="url(#filter0_d_205_777)">
<path d="M9 45.7541C21.3533 39.143 30.6163 37.5678 44.5268 39.7124C59.2849 41.9876 63.2005 59.8817 77.994 57.8377C94.5382 55.5518 90.7445 33.6674 105.283 25.6149C121.978 16.3676 135.836 26.5336 154.196 21.0836C165.566 17.7085 171.142 13.7189 182 9" stroke="#F00109"/>
</g>
<defs>
<filter id="filter0_d_205_777" x="0.764076" y="0.541504" width="189.435" height="65.9585" filterUnits="userSpaceOnUse" color-interpolation-filters="sRGB">
<feFlood flood-opacity="0" result="BackgroundImageFix"/>
<feColorMatrix in="SourceAlpha" type="matrix" values="0 0 0 0 0 0 0 0 0 0 0 0 0 0 0 0 0 0 127 0" result="hardAlpha"/>
<feOffset/>
<feGaussianBlur stdDeviation="4"/>
<feComposite in2="hardAlpha" operator="out"/>
<feColorMatrix type="matrix" values="0 0 0 0 0.941176 0 0 0 0 0.00392157 0 0 0 0 0.0352941 0 0 0 0.68 0"/>
<feBlend mode="normal" in2="BackgroundImageFix" result="effect1_dropShadow_205_777"/>
<feBlend mode="normal" in="SourceGraphic" in2="effect1_dropShadow_205_777" result="shape"/>
</filter>
<linearGradient id="paint0_linear_205_777" x1="96.0058" y1="-11" x2="96.0059" y2="76" gradientUnits="userSpaceOnUse">
<stop stop-color="#DA8184"/>
<stop offset="1" stop-color="#CA6B6E" stop-opacity="0"/>
</linearGradient>
</defs>
</svg>
