<svg width="30" height="32" viewBox="0 0 30 32" fill="none" xmlns="http://www.w3.org/2000/svg">
<path fill-rule="evenodd" clip-rule="evenodd" d="M15.0002 2.88353C22.2497 -1.19256 26.6831 1.14842 28.5413 5.16189C29.5344 7.30698 30.334 11.1123 29.8595 15.083H23.1415L22.2644 13.0759C21.9015 12.1277 20.687 12.0283 20.2143 12.9434L19.4986 14.3282L18.0325 7.92343C17.7968 6.63384 16.1169 6.55726 15.7999 7.84092L14.2298 14.1856L13.7098 12.0723C13.4786 11.1186 12.3585 10.8068 11.7483 11.5642L8.90548 15.083H0.140523C-0.33405 11.1123 0.465636 7.30698 1.45908 5.16189C3.31692 1.14842 7.75025 -1.19256 15.0002 2.88353ZM29.3784 17.6042C27.8248 23.4264 19.8172 30.2218 15.0002 31.1589C10.1832 30.2213 2.17556 23.4269 0.622029 17.6047H9.41587C9.79338 17.6047 10.1281 17.4041 10.3373 17.0957L12.0495 14.9764L13.1169 19.3377C13.4197 20.5816 15.0268 20.5689 15.3311 19.3419L16.865 13.1478L17.9717 17.9833C18.2309 19.1231 19.6388 19.2729 20.1092 18.241L21.1257 16.2732L21.3934 16.8854C21.5895 17.336 21.9982 17.5992 22.4246 17.5996L29.3784 17.6042Z" fill="#EC252C"/>
</svg>
