<svg width="32" height="33" viewBox="0 0 32 33" fill="none" xmlns="http://www.w3.org/2000/svg">
<g filter="url(#filter0_d_293_2126)">
<path d="M27.5827 3.91815C27.2092 3.54015 26.7445 3.26486 26.2335 3.11888C25.7225 2.9729 25.1825 2.96116 24.6656 3.0848L7.99677 6.5953C7.03682 6.72694 6.1327 7.12394 5.38621 7.74159C4.63973 8.35925 4.08053 9.17303 3.7716 10.0913C3.46266 11.0095 3.41626 11.9958 3.63762 12.939C3.85898 13.8822 4.3393 14.7449 5.0245 15.4299L6.81432 17.2185C6.91119 17.3153 6.98801 17.4303 7.04039 17.5568C7.09277 17.6834 7.11967 17.819 7.11957 17.956V21.2561C7.12187 21.7201 7.22869 22.1776 7.43211 22.5947L7.42377 22.6019L7.45086 22.629C7.75612 23.2427 8.2547 23.7391 8.8698 24.0416L8.89689 24.0687L8.90418 24.0603C9.32128 24.2637 9.77885 24.3705 10.2429 24.3728H13.5433C13.8195 24.3726 14.0844 24.482 14.2799 24.677L16.0687 26.4656C16.5484 26.9506 17.1195 27.3359 17.7489 27.5993C18.3783 27.8626 19.0535 27.9988 19.7358 28C20.3044 27.9993 20.8691 27.9064 21.4079 27.725C22.3179 27.4262 23.1262 26.8792 23.7418 26.1455C24.3574 25.4118 24.7556 24.5208 24.8917 23.5728L28.4078 6.86927C28.5379 6.34805 28.5302 5.80197 28.3856 5.28461C28.2409 4.76724 27.9642 4.29636 27.5827 3.91815ZM8.28951 15.7476L6.49865 13.959C6.08164 13.5521 5.78936 13.0347 5.65613 12.4675C5.5229 11.9003 5.55424 11.3069 5.74647 10.7569C5.93284 10.1926 6.27738 9.69374 6.7391 9.3196C7.20082 8.94546 7.76029 8.7118 8.35098 8.64639L24.8542 5.17235L9.20109 20.8259V17.956C9.20267 17.5459 9.12292 17.1396 8.96645 16.7605C8.80998 16.3815 8.5799 16.0372 8.28951 15.7476ZM22.8446 23.2165C22.7646 23.7919 22.5258 24.3336 22.155 24.7808C21.7842 25.228 21.2961 25.563 20.7455 25.7482C20.1948 25.9334 19.6035 25.9615 19.0377 25.8294C18.472 25.6972 17.9543 25.41 17.5428 24.9999L15.7509 23.2082C15.4617 22.9174 15.1176 22.6869 14.7387 22.5299C14.3598 22.3729 13.9535 22.2926 13.5433 22.2936H10.6732L26.3284 6.6453L22.8446 23.2165Z" fill="white"/>
</g>
<defs>
<filter id="filter0_d_293_2126" x="0" y="0.5" width="32" height="32" filterUnits="userSpaceOnUse" color-interpolation-filters="sRGB">
<feFlood flood-opacity="0" result="BackgroundImageFix"/>
<feColorMatrix in="SourceAlpha" type="matrix" values="0 0 0 0 0 0 0 0 0 0 0 0 0 0 0 0 0 0 127 0" result="hardAlpha"/>
<feOffset dy="1"/>
<feGaussianBlur stdDeviation="1.75"/>
<feComposite in2="hardAlpha" operator="out"/>
<feColorMatrix type="matrix" values="0 0 0 0 0 0 0 0 0 0 0 0 0 0 0 0 0 0 0.25 0"/>
<feBlend mode="normal" in2="BackgroundImageFix" result="effect1_dropShadow_293_2126"/>
<feBlend mode="normal" in="SourceGraphic" in2="effect1_dropShadow_293_2126" result="shape"/>
</filter>
</defs>
</svg>
