<svg width="350" height="307" viewBox="0 0 250 207" fill="none" xmlns="http://www.w3.org/2000/svg">
<path d="M49.6019 32.8801L50.4693 33.1302C54.8606 34.3811 55.8909 38.4548 55.2575 43.4926C55.2788 44.3061 55.4091 45.0931 55.6481 45.8539C58.8783 53.7655 57.1909 54.2415 59.099 60.9239C59.1256 61.0054 59.1252 61.0596 59.1246 61.1409C59.8223 62.3387 59.4755 72.9088 58.8584 79.4649C58.8846 79.6007 58.8838 79.7091 58.8557 79.8444C58.5943 82.2282 58.5419 81.9568 58.8349 82.7721C59.1278 83.5874 60.2656 87.8245 60.2911 88.0687C60.3427 88.4486 60.34 88.8281 60.2832 89.1801C60.0574 90.3713 59.8297 91.8336 59.3398 91.9657C59.063 92.6957 58.625 93.1806 58.3524 93.3142C57.6946 94.15 57.5008 94.6637 57.23 94.5533C56.9591 94.443 56.8528 94.1169 56.9634 93.8466C56.9634 93.8466 56.9634 93.8466 56.9636 93.8195C57.0747 93.4678 56.937 93.738 56.7168 94.1431C56.4417 94.6291 56.1936 95.1424 56.0027 95.2495C55.2184 94.7831 55.7416 93.7838 56.2087 93.028C56.4834 92.5962 56.0721 93.1355 55.5774 93.9453C55.1377 94.6741 54.6985 95.3216 54.5904 95.2395C53.5633 94.5274 54.8823 92.3951 55.1013 92.1527C55.0791 91.4477 55.084 90.77 55.1161 90.0654C54.9021 89.603 54.7448 88.8157 54.6444 87.6493C54.5325 88.1094 54.3665 88.542 54.2004 88.9745C53.954 89.2439 54.6161 91.6342 52.7692 91.6211C52.7757 90.6995 52.7848 89.4254 52.791 88.5579C52.796 87.8531 53.0262 86.0384 53.0312 85.3336C53.0362 84.6288 54.6246 82.7966 54.7067 82.7159C54.7689 81.6048 54.7227 80.4659 54.622 79.3537C54.6222 79.3266 54.6226 79.2724 54.6499 79.2455C54.3157 76.5864 53.4931 73.8697 52.9347 72.185C52.3763 70.5002 51.3675 67.2129 51.5742 64.883C51.5476 64.8014 51.5213 64.6928 51.549 64.6117C51.527 63.8796 51.6139 63.1211 51.8362 62.4179C49.716 58.8245 48.5499 54.7499 48.4981 50.5747C47.8255 53.4977 45.8429 57.279 45.8269 59.529C45.8076 62.2398 46.607 64.4142 46.5942 66.2033C46.5865 67.2876 46.277 68.8035 45.6652 70.8053C46.7361 72.9816 51.1431 83.4769 51.8139 92.265C52.4597 100.755 52.5821 106.449 51.6717 112.244C53.6627 114.914 54.4456 123.215 53.0239 132.151C52.4842 135.482 53.1388 142.725 53.7373 146.416C54.3357 150.107 50.2343 150.105 48.8025 149.011C47.9922 148.381 46.7018 146.502 47.2812 145.232C47.2464 142.493 46.3823 134.138 44.2522 128.131C43.1342 124.925 43.2256 119.72 43.3816 116.875C43.3556 116.712 43.3025 116.549 43.2765 116.386C42.9615 114.839 43.1551 114.352 43.1887 113.458C42.3093 111.066 40.0029 106.929 39.1596 103.291C38.4483 100.195 37.7942 96.6933 37.1429 92.785L36.4641 92.7531C36.2123 93.7815 36.0147 94.8373 35.8712 95.9207C35.6635 98.3862 35.9601 102.509 32.1594 113.678C32.1483 115.25 32.6358 115.444 32.4322 117.34C32.3738 117.909 32.2885 118.45 32.1486 119.019C32.9393 122.413 33.7136 128.111 31.2053 133.244C29.5512 136.676 28.5934 141.494 29.1451 144.128C29.8426 145.353 29.4968 148.142 28.7584 148.842C27.4189 150.053 22.2912 149.23 22.9431 145.412C23.595 141.595 23.6361 135.821 22.5819 131.286C21.6327 127.267 21.9927 122.471 22.8714 117.327C22.8727 117.137 22.8741 116.947 22.8756 116.73C22.8824 115.781 22.9157 114.914 22.9758 114.101C22.5283 112.092 21.9428 110.407 21.3634 104.032C21.0607 100.777 21.4602 98.0691 21.4005 95.0053C21.6886 85.0582 23.5387 73.1703 24.4518 70.8183L24.5061 70.8186C24.3782 69.7063 24.3049 68.5671 24.2856 67.4555C24.2954 66.073 25.1586 63.0971 25.4499 60.334C25.6819 58.2753 24.5024 56.0712 23.7314 53.7343C23.4389 56.6601 21.9782 59.6318 20.087 62.0312C22.1139 71.1 18.5819 75.0601 17.553 82.2368C17.6878 82.3733 17.7955 82.5096 17.9032 82.6459C19.0602 84.1722 19.2361 86.1795 18.4854 88.6141C18.8598 89.43 19.1282 89.8927 19.29 90.0565C19.749 90.4393 20.131 90.198 20.2581 91.4188C19.8517 91.2804 19.3911 91.1145 18.9848 90.949C19.8767 91.5788 20.1439 92.2042 19.841 92.7714L18.6508 92.0852C18.9477 92.3584 19.1353 92.7121 19.1869 93.092C19.157 93.4714 19.0459 93.823 18.8534 94.147L17.7512 92.5397L16.3039 89.8186L17.1287 92.2371C17.6936 93.0002 17.9876 93.68 18.0381 94.2225C18.0885 94.7651 17.8961 95.089 17.4068 95.1398C16.4383 93.8317 15.8466 93.0143 15.6312 92.7416C15.068 91.7346 14.5864 90.7011 14.1867 89.6139C14.0011 88.9891 13.9575 87.4706 14.0566 85.0044C14.0329 84.5162 14.0366 84.0012 14.0943 83.5136C14.5594 79.2337 12.2967 72.7657 12.9962 66.0746C13.1141 64.7742 13.4221 63.4751 13.8925 62.2585C14.0091 61.1479 14.6713 59.6886 14.6238 58.7395C14.2049 48.8959 16.5276 50.7557 16.4252 46.0651C16.3227 41.3744 16.0462 38.2549 17.8549 35.9905C19.2529 34.2111 22.4108 33.2033 24.3401 33.0813C24.7225 32.7858 25.1588 32.5449 25.5949 32.3311C26.8757 31.7438 28.2104 31.211 29.5447 30.7325C31.1622 28.6294 30.8671 28.1122 30.8936 24.3984C30.9204 20.6304 40.4145 22.3782 40.4031 23.9775C40.3925 25.4685 39.6351 28.8518 41.5251 30.4375" fill="url(#paint0_linear_118_588)"/>
<path fill-rule="evenodd" clip-rule="evenodd" d="M19.6817 156.964C19.9974 158.403 21.2126 159.387 23.0567 159.807C24.9007 160.227 28.2154 160.114 29.2523 159.444C30.2893 158.773 32.3165 156.375 29.4919 152.533C30.2964 150.18 31.5584 148.426 29.4324 145.646C28.4673 147.673 25.4867 146.649 23.2929 145.766C22.7782 145.572 21.6605 149.929 21.2925 152.014C20.0231 154.798 19.2355 154.792 19.6817 156.964Z" fill="#FAFAFA" fill-opacity="0.980392"/>
<path fill-rule="evenodd" clip-rule="evenodd" d="M24.4916 145.232C25.3372 144.723 26.4233 144.785 27.2065 145.414C27.4226 145.578 27.7711 146.231 28.3155 146.072C29.1592 145.834 29.0839 144.966 29.3848 144.67C29.6857 144.374 30.5116 146.63 29.736 148.739C28.9604 150.848 30.5398 154.085 30.5398 154.085C30.5398 154.085 31.299 158.076 28.4733 158.191C27.6581 158.24 27.6891 157.698 25.3523 157.817C23.9393 157.889 24.2321 158.731 22.1189 157.957C20.0058 157.183 19.4752 155.417 19.889 154.526C20.3303 153.58 21.1568 151.959 21.6304 150.309C21.7041 147.598 22.2061 145.758 23.0823 144.788C23.1056 145.331 23.4835 145.659 23.6736 145.66C24.271 145.691 24.2731 145.393 24.4916 145.232Z" fill="#FAFAFA" fill-opacity="0.980392"/>
<path fill-rule="evenodd" clip-rule="evenodd" d="M23.4402 147.936L26.8266 149.179L24.0987 150.814L26.996 152.081L23.7351 152.275L26.8976 150.644L24.0277 149.349L27.2447 147.691L23.4402 147.936Z" fill="#FAFAFA" fill-opacity="0.980392"/>
<path fill-rule="evenodd" clip-rule="evenodd" d="M57.1113 157.228C56.8292 158.69 55.627 159.684 53.8039 160.133C51.9808 160.581 48.64 160.557 47.5853 159.899C46.5305 159.268 44.456 156.895 47.2271 153.011C46.3746 150.673 45.0831 148.956 47.1405 146.124C48.1583 148.137 51.0997 147.047 53.2794 146.113C53.797 145.9 54.9882 150.246 55.4081 152.309C56.7464 155.084 57.5342 155.062 57.1113 157.228Z" fill="#FAFAFA" fill-opacity="0.980392"/>
<path fill-rule="evenodd" clip-rule="evenodd" d="M30.364 25.94C30.4598 27.7569 32.6158 30.1849 33.507 30.9232C34.3982 31.6615 36.7323 31.9491 37.7716 30.9535C38.8109 29.9579 39.7427 28.7988 39.9648 28.1227C40.1869 27.4466 40.8765 25.9605 40.9882 25.5275C41.6851 26.8608 44.3625 20.8617 42.0234 21.2788C42.0347 19.6795 42.2252 15.7772 40.0645 14.0269C37.9037 12.2766 35.0808 11.9584 32.1102 13.3198C29.1397 14.6812 28.5757 17.6049 29.2272 21.5132C29.7695 21.6526 27.193 21.065 28.1793 23.7287C28.8486 25.116 28.8397 26.3629 30.364 25.94Z" fill="#FAFAFA" fill-opacity="0.980392"/>
<g filter="url(#filter0_d_118_588)">
<path d="M46.9996 65.7712C50.8317 66.6517 55.3996 67.8198 55.3996 69.2373C55.3996 71.8942 46.9378 74.048 36.4996 74.048C26.0614 74.048 17.5996 71.8942 17.5996 69.2373C17.5996 67.8756 20.6548 66.6464 24.227 65.7712" stroke="#E95D5C" stroke-width="1.5" stroke-linecap="square"/>
</g>
<g filter="url(#filter1_d_118_588)">
<path d="M55.7274 41.3324C62.2728 41.3324 66.7728 42.3636 66.7728 43.7811C66.7728 46.438 54.7153 48.8992 37.3183 48.8992C19.9213 48.8992 5.40918 46.438 5.40918 43.7811C5.40918 43.7811 6.63645 41.3325 16.0455 41.3324" stroke="#E95D5C" stroke-width="1.5" stroke-linecap="square"/>
</g>
<rect x="91" y="6.5" width="42" height="42" rx="12" fill="#FBE2E9"/>
<path fill-rule="evenodd" clip-rule="evenodd" d="M111.999 18.7657C117.249 16.0784 120.459 17.6218 121.805 20.2678C122.524 21.682 123.103 24.1908 122.76 26.8087H117.895L117.26 25.4854C116.997 24.8603 116.117 24.7947 115.775 25.3981L115.257 26.3111L114.195 22.0884C114.025 21.2382 112.808 21.1877 112.578 22.0341L111.442 26.2171L111.065 24.8237C110.898 24.195 110.086 23.9894 109.645 24.4887L107.586 26.8087H101.239C100.895 24.1908 101.474 21.682 102.194 20.2678C103.539 17.6218 106.749 16.0784 111.999 18.7657ZM122.411 28.4709C121.286 32.3094 115.488 36.7895 111.999 37.4074C108.511 36.7892 102.713 32.3097 101.588 28.4712H107.956C108.229 28.4712 108.471 28.339 108.623 28.1356L109.863 26.7384L110.636 29.6137C110.855 30.4338 112.019 30.4255 112.239 29.6165L113.35 25.5328L114.151 28.7208C114.339 29.4723 115.358 29.5711 115.699 28.8907L116.435 27.5934L116.629 27.997C116.771 28.2941 117.067 28.4676 117.376 28.4678L122.411 28.4709Z" fill="#EC252C"/>
<rect x="91" y="58.5" width="42" height="42" rx="12" fill="#FAE2C4"/>
<path d="M117.023 68.1572H107.438C106.902 68.1572 106.451 68.6083 106.451 69.144V80.1389C106.451 80.6746 106.902 81.1257 107.438 81.1257H117.023C117.559 81.1257 118.01 80.6746 118.01 80.1389V69.144C118.01 68.6083 117.559 68.1572 117.023 68.1572ZM109.834 76.8968H107.579V76.0511H109.834V76.8968ZM113.499 76.8968H110.962V76.0511H113.499V76.8968ZM116.882 76.8968H114.627V76.0511H116.882V76.8968Z" fill="#E79B38"/>
<path d="M118.151 66.4653H106.31C105.464 66.4653 104.76 67.1701 104.76 68.0159V81.7737C104.76 82.5913 105.07 83.3525 105.605 83.9445L107.043 85.5233L107.071 85.5515C108.058 86.6228 108.171 86.7356 108.425 86.7356H110.68V90.4569L111.075 91.8102H113.415L113.809 90.4569V86.7637H116.065C116.318 86.7637 116.431 86.651 117.418 85.5797L118.884 83.9445C119.419 83.3525 119.73 82.5631 119.73 81.7737V68.0159C119.701 67.1701 118.997 66.4653 118.151 66.4653ZM108.988 85.918V85.0722H110.68V85.918H108.988ZM112.653 89.583V87.8914H111.808V89.583H111.526V85.0722H112.935V89.583H112.653ZM111.695 90.9926L111.526 90.4287H112.907L112.738 90.9926H111.695ZM113.781 85.0722H115.473V85.918H113.781V85.0722ZM118.856 81.7737C118.856 82.3658 118.63 82.9296 118.235 83.3807L116.798 84.9594L116.769 84.9876C116.628 85.1568 116.459 85.3259 116.318 85.4669V84.6211C116.318 84.3956 116.121 84.1983 115.895 84.1983H108.565C108.34 84.1983 108.143 84.3956 108.143 84.6211V85.4669C108.002 85.2978 107.832 85.1286 107.692 84.9876L106.226 83.3807C105.831 82.9296 105.605 82.3658 105.605 81.7737V68.0159C105.605 67.6212 105.915 67.3111 106.31 67.3111H118.151C118.546 67.3111 118.856 67.6212 118.856 68.0159V81.7737Z" fill="#E79B38"/>
<path d="M109.113 82.0969C108.717 82.4932 108.592 83.0109 108.834 83.2531C109.077 83.4953 109.594 83.3703 109.991 82.974C110.387 82.5777 110.512 82.06 110.27 81.8178C110.027 81.5756 109.51 81.7005 109.113 82.0969Z" fill="#E79B38"/>
<path d="M114.188 82.0969C113.792 82.4932 113.667 83.0109 113.909 83.2531C114.151 83.4953 114.669 83.3703 115.065 82.974C115.461 82.5777 115.586 82.06 115.344 81.8178C115.102 81.5756 114.584 81.7005 114.188 82.0969Z" fill="#E79B38"/>
<path d="M111.652 82.0969C111.256 82.4932 111.131 83.0109 111.373 83.2531C111.615 83.4953 112.133 83.3703 112.529 82.974C112.926 82.5777 113.05 82.06 112.808 81.8178C112.566 81.5756 112.048 81.7005 111.652 82.0969Z" fill="#E79B38"/>
<rect x="91" y="110.5" width="42" height="42" rx="12" fill="#D0FBFF"/>
<path d="M112.025 119.769C112.025 126.63 105.041 131.565 105.041 136.5C105.041 140.289 108.168 143.361 112.025 143.361C115.882 143.361 119.008 140.289 119.008 136.5C119.008 131.565 112.025 126.63 112.025 119.769ZM114.835 140.035H109.215V138.538L114.835 138.539V140.035ZM114.835 134.858L112.787 134.856V136.87H111.262V134.856H109.214V133.36H111.262V131.348H112.787V133.36H114.835V134.858Z" fill="#478F96"/>
<defs>
<filter id="filter0_d_118_588" x="12.8496" y="61.8643" width="47.3" height="17.9338" filterUnits="userSpaceOnUse" color-interpolation-filters="sRGB">
<feFlood flood-opacity="0" result="BackgroundImageFix"/>
<feColorMatrix in="SourceAlpha" type="matrix" values="0 0 0 0 0 0 0 0 0 0 0 0 0 0 0 0 0 0 127 0" result="hardAlpha"/>
<feOffset dy="1"/>
<feGaussianBlur stdDeviation="2"/>
<feComposite in2="hardAlpha" operator="out"/>
<feColorMatrix type="matrix" values="0 0 0 0 0.913725 0 0 0 0 0.364706 0 0 0 0 0.360784 0 0 0 0.37 0"/>
<feBlend mode="normal" in2="BackgroundImageFix" result="effect1_dropShadow_118_588"/>
<feBlend mode="normal" in="SourceGraphic" in2="effect1_dropShadow_118_588" result="shape"/>
</filter>
<filter id="filter1_d_118_588" x="0.65918" y="37.5824" width="70.8635" height="17.0668" filterUnits="userSpaceOnUse" color-interpolation-filters="sRGB">
<feFlood flood-opacity="0" result="BackgroundImageFix"/>
<feColorMatrix in="SourceAlpha" type="matrix" values="0 0 0 0 0 0 0 0 0 0 0 0 0 0 0 0 0 0 127 0" result="hardAlpha"/>
<feOffset dy="1"/>
<feGaussianBlur stdDeviation="2"/>
<feComposite in2="hardAlpha" operator="out"/>
<feColorMatrix type="matrix" values="0 0 0 0 0.913725 0 0 0 0 0.364706 0 0 0 0 0.360784 0 0 0 0.37 0"/>
<feBlend mode="normal" in2="BackgroundImageFix" result="effect1_dropShadow_118_588"/>
<feBlend mode="normal" in="SourceGraphic" in2="effect1_dropShadow_118_588" result="shape"/>
</filter>
<linearGradient id="paint0_linear_118_588" x1="36.717" y1="2.92409" x2="42.5393" y2="183.632" gradientUnits="userSpaceOnUse">
<stop stop-color="#F2F7F9"/>
</linearGradient>
</defs>
</svg>
