<svg width="42" height="43" viewBox="0 0 42 43" fill="none" xmlns="http://www.w3.org/2000/svg">
<rect y="0.5" width="42" height="42" rx="12" fill="#FBE2E9"/>
<path fill-rule="evenodd" clip-rule="evenodd" d="M20.9994 12.7657C26.2491 10.0784 29.4594 11.6218 30.805 14.2678C31.5242 15.682 32.1032 18.1908 31.7596 20.8087H26.8948L26.2597 19.4854C25.9969 18.8603 25.1174 18.7947 24.7752 19.3981L24.2569 20.3111L23.1952 16.0884C23.0245 15.2382 21.8081 15.1877 21.5785 16.0341L20.4415 20.2171L20.065 18.8237C19.8976 18.195 19.0864 17.9894 18.6446 18.4887L16.586 20.8087H10.239C9.89531 18.1908 10.4744 15.682 11.1938 14.2678C12.5391 11.6218 15.7495 10.0784 20.9994 12.7657ZM31.4112 22.4709C30.2862 26.3094 24.4876 30.7895 20.9994 31.4074C17.5113 30.7892 11.7126 26.3097 10.5876 22.4712H16.9556C17.229 22.4712 17.4714 22.339 17.6228 22.1356L18.8627 20.7384L19.6357 23.6137C19.8549 24.4338 21.0187 24.4255 21.239 23.6165L22.3498 19.5328L23.1512 22.7208C23.3389 23.4723 24.3584 23.5711 24.699 22.8907L25.4351 21.5934L25.629 21.997C25.771 22.2941 26.0669 22.4676 26.3757 22.4678L31.4112 22.4709Z" fill="#EC252C"/>
</svg>
