<svg width="72" height="149" viewBox="0 0 72 149" fill="none" xmlns="http://www.w3.org/2000/svg">
<path d="M49.6017 20.8801L50.469 21.1302C54.8603 22.3811 55.8906 26.4548 55.2572 31.4926C55.2786 32.3061 55.4088 33.0931 55.6479 33.8539C58.8781 41.7655 57.1907 42.2415 59.0988 48.9239C59.1254 49.0054 59.125 49.0596 59.1244 49.1409C59.8221 50.3387 59.4752 60.9088 58.8582 67.4649C58.8844 67.6007 58.8836 67.7091 58.8555 67.8444C58.594 70.2282 58.5417 69.9568 58.8346 70.7721C59.1276 71.5874 60.2654 75.8245 60.2908 76.0687C60.3424 76.4486 60.3397 76.8281 60.2829 77.1801C60.0571 78.3713 59.8294 79.8336 59.3396 79.9657C59.0628 80.6957 58.6247 81.1806 58.3522 81.3142C57.6943 82.15 57.5006 82.6637 57.2297 82.5533C56.9589 82.443 56.8526 82.1169 56.9631 81.8466C56.9631 81.8466 56.9631 81.8466 56.9633 81.8195C57.0745 81.4678 56.9367 81.738 56.7166 82.1431C56.4415 82.6291 56.1934 83.1424 56.0025 83.2495C55.2181 82.7831 55.7413 81.7838 56.2084 81.028C56.4831 80.5962 56.0719 81.1355 55.5772 81.9453C55.1374 82.6741 54.6982 83.3216 54.5902 83.2395C53.5631 82.5274 54.882 80.3951 55.101 80.1527C55.0789 79.4477 55.0837 78.77 55.1159 78.0654C54.9019 77.603 54.7445 76.8157 54.6442 75.6493C54.5323 76.1094 54.3662 76.542 54.2002 76.9745C53.9538 77.2439 54.6158 79.6342 52.7689 79.6211C52.7755 78.6995 52.7845 77.4254 52.7907 76.5579C52.7957 75.8531 53.0259 74.0384 53.031 73.3336C53.036 72.6288 54.6244 70.7966 54.7065 70.7159C54.7687 69.6048 54.7225 68.4659 54.6217 67.3537C54.6219 67.3266 54.6223 67.2724 54.6497 67.2455C54.3155 64.5864 53.4928 61.8697 52.9344 60.185C52.376 58.5002 51.3673 55.2129 51.574 52.883C51.5474 52.8014 51.521 52.6928 51.5487 52.6117C51.5268 51.8796 51.6137 51.1211 51.836 50.4179C49.7158 46.8245 48.5497 42.7499 48.4979 38.5747C47.8252 41.4977 45.8427 45.279 45.8267 47.529C45.8074 50.2398 46.6067 52.4142 46.594 54.2033C46.5863 55.2876 46.2767 56.8035 45.6649 58.8053C46.7359 60.9816 51.1429 71.4769 51.8137 80.265C52.4595 88.7548 52.5819 94.4486 51.6715 100.244C53.6624 102.914 54.4454 111.215 53.0237 120.151C52.4839 123.482 53.1386 130.725 53.737 134.416C54.3355 138.107 50.2341 138.105 48.8023 137.011C47.9919 136.381 46.7015 134.502 47.281 133.232C47.2461 130.493 46.3821 122.138 44.2519 116.131C43.134 112.925 43.2253 107.72 43.3814 104.875C43.3554 104.712 43.3022 104.549 43.2762 104.386C42.9613 102.839 43.1549 102.352 43.1884 101.458C42.3091 99.066 40.0026 94.9291 39.1594 91.2905C38.448 88.1951 37.7939 84.6933 37.1427 80.785L36.4639 80.7531C36.2121 81.7815 36.0144 82.8373 35.8709 83.9207C35.6633 86.3862 35.9598 90.5089 32.1592 101.678C32.148 103.25 32.6356 103.444 32.4319 105.34C32.3736 105.909 32.2882 106.45 32.1484 107.019C32.9391 110.413 33.7133 116.111 31.2051 121.244C29.551 124.676 28.5932 129.494 29.1448 132.128C29.8423 133.353 29.4965 136.142 28.7582 136.842C27.4186 138.053 22.2909 137.23 22.9428 133.412C23.5947 129.595 23.6358 123.821 22.5816 119.286C21.6324 115.267 21.9925 110.471 22.8711 105.327C22.8725 105.137 22.8738 104.947 22.8754 104.73C22.8821 103.781 22.9154 102.914 22.9756 102.101C22.5281 100.092 21.9425 98.4072 21.3632 92.0324C21.0604 88.7772 21.46 86.0691 21.4003 83.0053C21.6884 73.0582 23.5385 61.1703 24.4516 58.8183L24.5059 58.8186C24.378 57.7063 24.3046 56.5671 24.2854 55.4555C24.2952 54.073 25.1584 51.0971 25.4497 48.334C25.6816 46.2753 24.5022 44.0712 23.7311 41.7343C23.4387 44.6601 21.978 47.6318 20.0868 50.0312C22.1137 59.1 18.5816 63.0601 17.5527 70.2368C17.6876 70.3733 17.7952 70.5096 17.9029 70.6459C19.06 72.1722 19.2358 74.1795 18.4851 76.6141C18.8596 77.43 19.1279 77.8927 19.2897 78.0565C19.7488 78.4393 20.1307 78.198 20.2579 79.4188C19.8514 79.2804 19.3908 79.1145 18.9846 78.949C19.8765 79.5788 20.1436 80.2042 19.8408 80.7714L18.6506 80.0852C18.9474 80.3584 19.135 80.7121 19.1866 81.092C19.1568 81.4714 19.0456 81.823 18.8532 82.147L17.751 80.5397L16.3036 77.8186L17.1284 80.2371C17.6934 81.0002 17.9873 81.68 18.0378 82.2225C18.0883 82.7651 17.8958 83.089 17.4066 83.1398C16.438 81.8317 15.8463 81.0143 15.631 80.7416C15.0677 79.7346 14.5862 78.7011 14.1865 77.6139C14.0008 76.9891 13.9573 75.4706 14.0563 73.0044C14.0326 72.5162 14.0363 72.0012 14.0941 71.5136C14.5591 67.2337 12.2964 60.7657 12.9959 54.0746C13.1138 52.7742 13.4219 51.4751 13.8923 50.2585C14.0088 49.1479 14.6711 47.6886 14.6235 46.7395C14.2047 36.8959 16.5273 38.7557 16.4249 34.0651C16.3225 29.3744 16.0459 26.2549 17.8547 23.9905C19.2526 22.2111 22.4105 21.2033 24.3399 21.0813C24.7223 20.7858 25.1586 20.5449 25.5947 20.3311C26.8754 19.7438 28.2102 19.211 29.5445 18.7325C31.162 16.6294 30.8669 16.1122 30.8933 12.3984C30.9201 8.63041 40.4143 10.3782 40.4029 11.9775C40.3923 13.4685 39.6348 16.8518 41.5249 18.4375" fill="url(#paint0_linear_250_620)"/>
<path fill-rule="evenodd" clip-rule="evenodd" d="M19.6814 144.964C19.9971 146.403 21.2124 147.387 23.0564 147.807C24.9005 148.227 28.2151 148.114 29.2521 147.444C30.289 146.773 32.3162 144.375 29.4916 140.533C30.2962 138.18 31.5582 136.426 29.4322 133.646C28.467 135.673 25.4865 134.649 23.2926 133.766C22.7779 133.572 21.6603 137.929 21.2923 140.014C20.0229 142.797 19.2352 142.792 19.6814 144.964Z" fill="#FAFAFA" fill-opacity="0.980392"/>
<path fill-rule="evenodd" clip-rule="evenodd" d="M24.4916 133.232C25.3372 132.723 26.4233 132.785 27.2065 133.414C27.4226 133.578 27.7711 134.231 28.3155 134.072C29.1592 133.834 29.0839 132.966 29.3848 132.67C29.6857 132.374 30.5116 134.63 29.736 136.739C28.9604 138.848 30.5398 142.085 30.5398 142.085C30.5398 142.085 31.299 146.076 28.4733 146.191C27.6581 146.24 27.6891 145.698 25.3523 145.817C23.9393 145.888 24.2321 146.731 22.1189 145.957C20.0058 145.183 19.4752 143.417 19.889 142.525C20.3303 141.58 21.1568 139.959 21.6304 138.309C21.7041 135.598 22.2061 133.758 23.0823 132.788C23.1056 133.331 23.4835 133.659 23.6736 133.66C24.271 133.691 24.2731 133.393 24.4916 133.232Z" fill="#FAFAFA" fill-opacity="0.980392"/>
<path fill-rule="evenodd" clip-rule="evenodd" d="M57.1112 145.228C56.8291 146.69 55.6268 147.685 53.8037 148.133C51.9807 148.581 48.6398 148.557 47.5852 147.899C46.5304 147.268 44.4558 144.895 47.227 141.011C46.3745 138.673 45.083 136.956 47.1404 134.124C48.1582 136.138 51.0996 135.047 53.2792 134.113C53.7968 133.9 54.9881 138.246 55.4079 140.309C56.7462 143.084 57.5341 143.062 57.1112 145.228Z" fill="#FAFAFA" fill-opacity="0.980392"/>
<path fill-rule="evenodd" clip-rule="evenodd" d="M30.3637 13.94C30.4595 15.757 32.6155 18.185 33.5067 18.9233C34.3979 19.6615 36.7321 19.9492 37.7714 18.9536C38.8107 17.9579 39.7424 16.7989 39.9645 16.1227C40.1866 15.4466 40.8763 13.9605 40.988 13.5276C41.6848 14.8609 44.3622 8.86179 42.0231 9.27891C42.0344 7.67958 42.225 3.7773 40.0642 2.027C37.9034 0.276691 35.0806 -0.0415651 32.11 1.31986C29.1394 2.68129 28.5755 5.60501 29.2269 9.51327C29.7692 9.65267 27.1928 9.06508 28.179 11.7287C28.8483 13.116 28.8395 14.363 30.3637 13.94Z" fill="#FAFAFA" fill-opacity="0.980392"/>
<g filter="url(#filter0_d_250_620)">
<path d="M46.9995 53.7712C50.8316 54.6517 55.3995 55.8198 55.3995 57.2373C55.3995 59.8942 46.9377 62.048 36.4995 62.048C26.0613 62.048 17.5995 59.8942 17.5995 57.2373C17.5995 55.8756 20.6547 54.6464 24.2268 53.7712" stroke="#E95D5C" stroke-width="1.5" stroke-linecap="square"/>
</g>
<g filter="url(#filter1_d_250_620)">
<path d="M55.7272 29.3325C62.2727 29.3325 66.7727 30.3637 66.7727 31.7811C66.7727 34.438 54.7151 36.8992 37.3182 36.8992C19.9212 36.8992 5.40906 34.438 5.40906 31.7811C5.40906 31.7811 6.63633 29.3325 16.0454 29.3325" stroke="#E95D5C" stroke-width="1.5" stroke-linecap="square"/>
</g>
<defs>
<filter id="filter0_d_250_620" x="12.8495" y="49.8643" width="47.3" height="17.9338" filterUnits="userSpaceOnUse" color-interpolation-filters="sRGB">
<feFlood flood-opacity="0" result="BackgroundImageFix"/>
<feColorMatrix in="SourceAlpha" type="matrix" values="0 0 0 0 0 0 0 0 0 0 0 0 0 0 0 0 0 0 127 0" result="hardAlpha"/>
<feOffset dy="1"/>
<feGaussianBlur stdDeviation="2"/>
<feComposite in2="hardAlpha" operator="out"/>
<feColorMatrix type="matrix" values="0 0 0 0 0.913725 0 0 0 0 0.364706 0 0 0 0 0.360784 0 0 0 0.37 0"/>
<feBlend mode="normal" in2="BackgroundImageFix" result="effect1_dropShadow_250_620"/>
<feBlend mode="normal" in="SourceGraphic" in2="effect1_dropShadow_250_620" result="shape"/>
</filter>
<filter id="filter1_d_250_620" x="0.659058" y="25.5825" width="70.8636" height="17.0668" filterUnits="userSpaceOnUse" color-interpolation-filters="sRGB">
<feFlood flood-opacity="0" result="BackgroundImageFix"/>
<feColorMatrix in="SourceAlpha" type="matrix" values="0 0 0 0 0 0 0 0 0 0 0 0 0 0 0 0 0 0 127 0" result="hardAlpha"/>
<feOffset dy="1"/>
<feGaussianBlur stdDeviation="2"/>
<feComposite in2="hardAlpha" operator="out"/>
<feColorMatrix type="matrix" values="0 0 0 0 0.913725 0 0 0 0 0.364706 0 0 0 0 0.360784 0 0 0 0.37 0"/>
<feBlend mode="normal" in2="BackgroundImageFix" result="effect1_dropShadow_250_620"/>
<feBlend mode="normal" in="SourceGraphic" in2="effect1_dropShadow_250_620" result="shape"/>
</filter>
<linearGradient id="paint0_linear_250_620" x1="36.7168" y1="-9.07591" x2="42.539" y2="171.632" gradientUnits="userSpaceOnUse">
<stop stop-color="#F2F7F9"/>
</linearGradient>
</defs>
</svg>
